{
    "asset" : {
        "generator" : "Khronos glTF Blender I/O v1.7.33",
        "version" : "2.0"
    },
    "scene" : 0,
    "scenes" : [
        {
            "name" : "Scene",
            "nodes" : [
                0
            ]
        }
    ],
    "nodes" : [
        {
            "mesh" : 0,
            "name" : "Text",
            "rotation" : [
                0.7071068286895752,
                0,
                0,
                0.7071068286895752
            ]
        }
    ],
    "meshes" : [
        {
            "name" : "Text",
            "primitives" : [
                {
                    "attributes" : {
                        "POSITION" : 0,
                        "NORMAL" : 1,
                        "TEXCOORD_0" : 2
                    },
                    "indices" : 3
                }
            ]
        }
    ],
    "accessors" : [
        {
            "bufferView" : 0,
            "componentType" : 5126,
            "count" : 958,
            "max" : [
                3.4170002937316895,
                0.10999999940395355,
                0.009000000543892384
            ],
            "min" : [
                0.07400000095367432,
                -0.10999999940395355,
                -0.6820000410079956
            ],
            "type" : "VEC3"
        },
        {
            "bufferView" : 1,
            "componentType" : 5126,
            "count" : 958,
            "type" : "VEC3"
        },
        {
            "bufferView" : 2,
            "componentType" : 5126,
            "count" : 958,
            "type" : "VEC2"
        },
        {
            "bufferView" : 3,
            "componentType" : 5123,
            "count" : 1728,
            "type" : "SCALAR"
        }
    ],
    "bufferViews" : [
        {
            "buffer" : 0,
            "byteLength" : 11496,
            "byteOffset" : 0
        },
        {
            "buffer" : 0,
            "byteLength" : 11496,
            "byteOffset" : 11496
        },
        {
            "buffer" : 0,
            "byteLength" : 7664,
            "byteOffset" : 22992
        },
        {
            "buffer" : 0,
            "byteLength" : 3456,
            "byteOffset" : 30656
        }
    ],
    "buffers" : [
        {
            "byteLength" : 34112,
            "uri" : "data:application/octet-stream;base64,"
        }
    ]
}
