<?xml version="1.0" encoding="UTF-8"?>
<!-- Created with Inkscape (http://www.inkscape.org/) -->
<svg width="149.21mm" height="149.21mm" version="1.1" viewBox="0 0 149.21 149.21" xmlns="http://www.w3.org/2000/svg">
 <g transform="translate(-54.942 -54.85)">
  <circle cx="129.55" cy="129.45" r="74.604" fill="#134c5b" fill-rule="evenodd" stroke-width=".30483"/>
  <circle cx="128.13" cy="125.84" r="64.293" fill="none"/>
  <path d="m129.33 184.68c-0.72034-0.79596-3.3575-2.097-5.2161-2.5734-1.333-0.34166-3.7582-0.47627-11.352-0.63009-7.501-0.15194-10.1-0.29457-11.642-0.63878-5.4371-1.2143-8.3832-4.0497-9.3777-9.0255-0.37885-1.8955-0.41555-6.484-0.35131-43.921l0.07174-41.804h76.877l-0.0114 42.237c-0.0112 41.466-0.021 42.264-0.53808 43.767-1.6267 4.7282-4.6276 7.5704-9.3968 8.9-1.9938 0.55587-2.6437 0.58941-12.03 0.62073-8.4923 0.0283-10.148 0.0981-11.494 0.48441-1.7755 0.50963-3.0777 1.221-4.2678 2.3316-0.79647 0.74322-0.82237 0.74835-1.2715 0.25202zm4.6112-6.696c0.79317-1.7715 1.6634-3.4295 1.9338-3.6844 0.93381-0.8801 0.31996-1.0068-1.396-0.28812-1.6273 0.68157-2.382 1.3726-1.499 1.3726 0.23041 0 0.41892 0.10318 0.41892 0.2293 0 0.54697-1.1458 2.9229-1.349 2.7973-0.45031-0.27831-0.80168-2.2042-0.50371-2.7609 0.35281-0.65923 0.0672-0.67964-1.1811-0.0844-0.87597 0.41772-1.3594 1.0233-0.57728 0.72315 0.47968-0.18407 0.99531 0.69096 1.7668 2.9982 0.35276 1.055 0.70956 1.9182 0.79288 1.9182 0.0833 0 0.80045-1.4494 1.5936-3.221zm19.659 1.9336c1.3611-1.1972 1.6701-3.6911 0.69443-5.6036-0.63618-1.247-1.4895-1.6723-2.5874-1.2896-2.0576 0.71731-2.694 5.3684-0.94266 6.8894 0.96789 0.8406 1.8829 0.84184 2.8356 4e-3zm-1.8027-0.28336c-0.0942-0.15244-0.0884-1.5878 0.013-3.1896 0.16542-2.6142 0.23548-2.9125 0.6842-2.9125 0.46599 0 0.49485 0.21068 0.42536 3.1057-0.0635 2.6441-0.13969 3.1181-0.51289 3.1896-0.2411 0.0462-0.51544-0.0407-0.60966-0.19319zm-24.871 0.23927c0.21257-0.17642 0.3865-0.50323 0.3865-0.72625 0-0.35245-0.0633-0.34821-0.48386 0.0324-0.6028 0.54552-1.7253 0.56716-2.1614 0.0417-0.2144-0.25834-0.28856-0.95297-0.2131-1.9961 0.0926-1.2799 0.25366-1.7378 0.80537-2.2895l0.68965-0.68964 0.37611 0.8998c0.57495 1.3755 1.1053 1.7182 1.8767 1.2127 0.3451-0.22612 0.68988-0.64981 0.76617-0.94153 0.12182-0.46585 0.0761-0.49207-0.37577-0.21547-0.4449 0.27233-0.61094 0.19831-1.2279-0.54736-1.4598-1.7645-3.8176-0.72287-4.3082 1.9033-0.2557 1.3687 6e-3 2.3236 0.90044 3.283 0.46857 0.50271 0.76707 0.59466 1.5802 0.48681 0.55141-0.0731 1.1765-0.27732 1.3891-0.45374zm18.666 0.023c-0.20165-0.12462-0.28852-0.71215-0.23697-1.6026l0.0814-1.4059 2.3604 2e-3 -0.0723 1.2975c-0.0448 0.80441-0.23226 1.4204-0.49323 1.6209-0.34744 0.26698-0.3561 0.34583-0.0496 0.45165 0.65948 0.22769 1.8262 0.0283 1.8264-0.31208 1e-4 -0.1819-0.14864-0.33048-0.33054-0.33017-0.50001 7.9e-4 -0.30066-5.4072 0.21509-5.8352 0.6196-0.51422 0.43896-0.77993-0.5302-0.77993-0.97457 0-1.4594 0.37539-0.80785 0.62543 0.26993 0.10358 0.39536 0.53048 0.39536 1.3456 0 1.0393-0.0822 1.2145-0.63455 1.3532-0.349 0.0876-0.91455 0.11962-1.2568 0.0712-0.53983-0.0764-0.63292-0.25486-0.70298-1.3475-0.0608-0.94793 0.021-1.2985 0.33073-1.4174 0.85691-0.32868 0.35757-0.6303-1.0437-0.6303-1.3469 0-1.8282 0.2674-1.1906 0.66145 0.15002 0.0927 0.26458 1.4036 0.26458 3.0275 0 2.6872-0.0343 2.8729-0.55579 3.0093-1.0529 0.27535-0.28612 0.57765 1.2301 0.48497 0.83566-0.0511 1.3761-0.18141 1.201-0.28963zm-5.2624-0.55542c0.86345-0.86345 0.82789-1.4464-0.0403-0.6607-0.74532 0.67451-1.7113 0.35547-2.1592-0.71312-0.47872-1.1422-0.42532-3.0346 0.10046-3.5604 0.37769-0.37769 0.50074-0.36292 1.3503 0.16213 0.86791 0.5364 0.9901 0.54905 1.7094 0.17707 0.73127-0.37815 1.1034-0.89795 1.1034-1.5412 0-0.15617-0.21774-0.0869-0.48386 0.15393-0.59914 0.54222-0.94369 0.55254-1.3682 0.041-0.56809-0.68451-2.1841-0.49934-2.9908 0.3427-1.0897 1.1374-1.6301 2.9808-1.2296 4.1943 0.72546 2.1982 2.5687 2.8439 4.0084 1.4042zm-23.47 5e-3c-0.0979-0.30833-0.10538-0.84967-0.0167-1.203 0.1428-0.56896 0.30697-0.64236 1.4366-0.64236 1.11 0 1.3152 0.0874 1.5825 0.6739 0.40856 0.89667 0.3871 1.1782-0.0898 1.1782-0.21828 0-0.39688 0.11906-0.39688 0.26458 0 0.15193 0.81247 0.26458 1.9082 0.26458h1.9082l-0.87101-0.7276c-0.60368-0.50428-1.2155-1.5349-1.9934-3.3577-0.61733-1.4466-1.2571-2.675-1.4217-2.7299-0.16462-0.0549-0.95421 1.2677-1.7546 2.9392-1.4865 3.1041-2.1171 3.7612-2.9477 3.0718-1.1286-0.93662 0.39507-4.9652 2.1975-5.8103 0.46554-0.21828 0.84902-0.48617 0.85217-0.59531 3e-3 -0.10914-0.79794-0.19482-1.7802-0.1904-1.3249 6e-3 -1.6682 0.0767-1.33 0.27379 0.41206 0.24014 0.36377 0.39408-0.50135 1.5983l-0.95733 1.3325-0.8165-1.2552c-0.55171-0.84814-0.71089-1.2904-0.49084-1.3638 0.77445-0.25815 0.22369-0.59114-0.93109-0.56294-0.69123 0.0169-1.0573 0.0834-0.81353 0.14788 0.24378 0.0645 0.93954 0.90874 1.5461 1.8762 1.2987 2.0714 1.7451 4.3393 0.91656 4.6572-0.851 0.32656-1.5683-0.54986-2.8771-3.5153-0.71177-1.6127-1.3717-2.9321-1.4664-2.9321-0.0948 0-0.63198 1.0418-1.1938 2.3151-0.56183 1.2733-1.1954 2.702-1.408 3.175-0.21257 0.47294-0.54449 0.85989-0.73761 0.85989-0.19311 0-0.42469 0.11906-0.51463 0.26459-0.10012 0.16199 0.31673 0.26458 1.0751 0.26458 1.0832 0 1.1964-0.0509 0.90178-0.4059-0.27318-0.32915-0.27085-0.52924 0.0123-1.0583 0.2955-0.55214 0.54127-0.65244 1.5987-0.65244 1.1381 0 1.2656 0.064 1.4295 0.71723 0.13011 0.51839 0.0566 0.80745-0.26502 1.0426-0.51931 0.37973 0.13193 0.45058 5.2574 0.57194 3.0839 0.073 3.128 0.0658 2.9527-0.48648zm-10.011-3.3667c0.54088-1.3052 0.51759-1.2966 0.99752-0.36846 0.59974 1.1598 0.52649 1.3606-0.49616 1.3606h-0.91254zm11.111 0.19844c0.4722-0.94655 0.76775-1.0061 0.98421-0.19844 0.25019 0.93358 0.21435 0.99219-0.60671 0.99219-0.77102 0-0.77221-3e-3 -0.3775-0.79375zm-17.634 1.3229c0.29945-0.72292 0.78158-1.0807 0.80217-0.59531 5e-3 0.10914 0.1795 0.42446 0.3886 0.70072 0.31437 0.41531 0.45034 0.44406 0.78534 0.16604 0.60292-0.50038 0.491-1.0336-0.25631-1.2211-0.36381-0.0913-0.66146-0.3188-0.66146-0.50553s0.29765-0.41421 0.66146-0.50552c0.79536-0.19963 0.82293-0.42918 0.15026-1.2511l-0.5112-0.62463-0.44011 1.0442-0.44012 1.0442-0.43289-0.71344c-0.49503-0.81586-0.887-0.89692-1.3924-0.28793-0.30004 0.36152-0.27742 0.48087 0.15046 0.79375 0.27698 0.20253 0.65944 0.36824 0.84991 0.36824 0.51634 0 0.42522 0.22209-0.3727 0.90843-0.61894 0.53239-0.66966 0.67791-0.36448 1.0456 0.50313 0.60624 0.70945 0.53644 1.0835-0.36657zm58.364-0.13229c0.21162-0.84315 0.46387-0.83378 1.1534 0.0428 0.53694 0.6826 0.56582 0.68872 0.93684 0.19844 0.52914-0.69924 0.5115-0.74245-0.46025-1.1272-0.7879-0.31195-0.81921-0.36665-0.37396-0.65332 1.346-0.86656 1.3658-0.89338 0.99303-1.3426-0.50946-0.61386-0.6645-0.54084-1.1896 0.56028l-0.47008 0.98578-0.73503-0.90059c-0.71777-0.87946-0.74204-0.88748-1.0341-0.34172-0.40609 0.75879-0.38124 0.85825 0.21445 0.85825 0.85406 0 0.94402 0.56987 0.17804 1.1278-0.66951 0.4877-0.68377 0.5401-0.23878 0.87762 0.67209 0.50978 0.83799 0.46359 1.026-0.28568zm-27.006-5.1655c1.2534-1.385 1.627-1.4472 8.858-1.4751 5.3141-0.0205 7.0972-0.11742 8.3965-0.4565 3.4339-0.89618 5.5776-2.4724 7.1748-5.2756 1.6937-2.9727 1.6267-1.5005 1.6267-35.728v-31.091l-55.562-0.04881 3e-3 31.682c3e-3 33.803-0.0302 32.881 1.2904 35.464 0.31927 0.62451 1.064 1.6189 1.6548 2.2098 2.3542 2.3542 5.7562 3.1348 13.689 3.1412 6.1811 5e-3 7.8308 0.29546 9.1972 1.6198 0.50435 0.48884 1.1708 1.3971 1.4811 2.0183l0.56408 1.1294 0.55231-1.3065c0.30377-0.71859 0.78737-1.5663 1.0747-1.8837zm-3.0249-2.2679c-1.762-1.2517-3.1173-1.467-10.607-1.6848-7.67-0.22306-8.8152-0.41989-10.797-1.8558-0.60195-0.43605-1.3364-1.267-1.6321-1.8466-1.3595-2.6649-1.3288-1.8784-1.3288-34.067v-29.976l51.197 0.135v60.325l-0.67688 1.6042c-0.86796 2.0571-1.9298 3.3927-3.4242 4.3071-2.252 1.378-3.0348 1.495-10.186 1.5222-3.638 0.0138-7.0313 0.11766-7.5406 0.23073-1.158 0.25707-2.7041 1.0288-3.159 1.5769-0.45288 0.5457-0.75923 0.5008-1.8447-0.27035zm-3.0581-4.8429c1.136-0.2058 1.7466-0.47673 2.1748-0.96495 0.70016-0.79837 0.72806-1.0079 0.20397-1.532-0.27125-0.27125-0.71373-0.3481-1.4419-0.25044-0.98453 0.13206-1.062 0.0931-1.2326-0.61974-0.39617-1.6548-1.0337-1.8431-1.4173-0.41856-0.34443 1.2791-1.0339 2.0123-2.5036 2.6624-1.2304 0.54428-1.8468 1.3157-1.5887 1.9883 0.24413 0.6362 0.91768 0.63828 2.6304 8e-3 0.87753-0.32288 2.3063-0.71581 3.175-0.87319zm13.046 0.27c0.19463-0.12337 0.3137-0.50844 0.26458-0.85571-0.0715-0.50558-0.40352-0.74264-1.6662-1.1897-1.6966-0.60062-1.8263-0.74139-2.1676-2.3524-0.18571-0.87658-0.34392-1.0722-0.92121-1.1391-0.55521-0.0643-0.8153 0.11067-1.2786 0.86034-0.3199 0.51761-0.86946 1.0134-1.2212 1.1016-0.5349 0.13425-0.63961 0.32379-0.63961 1.1578 0 1.196 0.29242 1.4705 1.839 1.7258 0.64765 0.10693 1.6002 0.35013 2.1167 0.54044 1.0769 0.39677 3.1519 0.48198 3.6742 0.15088zm-11.925-3.8025c0.14729-0.1819 0.3548-2.1642 0.46114-4.4051l0.19335-4.0743-0.85869 0.17174c-0.47228 0.0945-1.3796 0.17174-2.0162 0.17174-1.1142 0-1.1576 0.0302-1.1576 0.80766 0 0.94815 0.7493 4.4102 1.0993 5.0793 0.13322 0.25466 0.46341 0.46302 0.73376 0.46302 0.54046 0 0.81275 0.49478 0.81275 1.4768 0 0.69784 0.31106 0.82916 0.73216 0.30909zm-8.1428-1.1481c0.6536-0.51951 1.9246-1.6409 2.8245-2.492 1.2558-1.1877 1.6028-1.6748 1.4928-2.0956-0.0788-0.30149-0.24655-0.54817-0.37268-0.54817-0.19902 0-3.1804 2.5852-5.7562 4.9914-1.0186 0.9515-1.0323 1.0947-0.10434 1.0914 0.43309-2e-3 1.2086-0.38489 1.916-0.94713zm15.832-1.4316c0.39053 0 0.56705-0.39635 0.9132-2.0505 0.236-1.1278 0.50868-3.0202 0.60595-4.2054 0.16462-2.0057 0.14014-2.1666-0.35363-2.3233-0.29177-0.0926-0.83695-0.0287-1.2115 0.14192-0.54689 0.24918-0.8004 0.23293-1.2872-0.0825-0.53927-0.34947-0.68244-0.34621-1.2976 0.0296-0.53819 0.32877-0.64659 0.54357-0.48914 0.9692 0.34544 0.93381 1.5111 1.5139 2.6698 1.3286 0.61152-0.0978 1.0243-0.0579 1.0243 0.0989 0 0.39941-1.2228 0.62098-2.3937 0.43374l-1.0458-0.16724v3.7955c0 2.0875 0.0694 3.8649 0.15434 3.9498 0.0849 0.0849 0.62067-0.31199 1.1906-0.88195 0.56996-0.56995 1.2541-1.0363 1.5204-1.0363zm-2.0055-7.0581c-1.1455-0.23566-0.57992-0.48259 1.1165-0.4875 0.94115-3e-3 1.6256 0.0773 1.521 0.17785-0.27022 0.25977-1.9318 0.45484-2.6376 0.30965zm9.4848 2.7945c0.71334-0.15299 1.297-0.37789 1.297-0.49979 0-0.34698-1.4491-0.5782-2.4486-0.39071-0.5786 0.10855-1.2643 0.0199-1.8995-0.24547l-0.99405-0.41534 0.18235-1.3259c0.16939-1.2316 0.1425-1.3259-0.37818-1.3259-0.696 0-0.94786 0.63353-1.1993 3.0167l-0.19264 1.8261 2.168-0.1808c1.1924-0.0994 2.7516-0.30597 3.465-0.45895zm-20.333-0.13952c0.7439-0.1399 0.82481-0.2918 0.73439-1.3787-0.0574-0.68983-1.7099-3.0102-1.9633-2.7568-0.0881 0.0881-0.16016 0.61064-0.16016 1.1612 0 0.86261-0.16466 1.1387-1.1906 1.9963-0.65484 0.54738-1.1906 1.0977-1.1906 1.2228 0 0.21039 2.0614 0.0765 3.7703-0.24486zm9.4588-0.40673c0-0.95077-0.53119-2.5985-0.83769-2.5985-0.11123 0-0.62309 0.36952-1.1375 0.82115-0.72585 0.63731-0.93524 1.0224-0.93524 1.7198v0.89863h2.9104zm-12.687-1.1501c1.0812-0.55913 0.98173-0.96784-0.21158-0.86907-0.79698 0.066-1.0088 0.19924-1.0767 0.67743-0.0992 0.69859 0.217 0.74563 1.2883 0.19164zm24.743-0.59275c-0.32956-0.32956-3.2595-0.38025-3.8457-0.0665-0.91963 0.49218-0.32892 0.76501 1.8438 0.85159 1.4798 0.059 2.0068-0.0103 2.0736-0.27237 0.0492-0.19329 0.017-0.424-0.0717-0.51269zm-16.677 0.04c0.35868-0.23502 0.65182-0.50291 0.65141-0.59531-5.3e-4 -0.0924-0.72848-0.16801-1.618-0.16801-1.5265 0-1.6637-0.0534-2.4467-0.95185-0.84799-0.97313-1.4909-1.0865-1.4909-0.26285 0 0.89368 2.175 2.3755 3.515 2.3947 0.4053 6e-3 1.0304-0.18169 1.3891-0.41671zm3.5433-1.5338c0.27729-0.33411 0.21963-0.42617-0.35766-0.57106-0.8962-0.22493-1.4751 0.26944-1.4751 1.2597v0.77937l0.7511-0.53483c0.4131-0.29416 0.89986-0.71408 1.0817-0.93316zm-10.201 0.4442c0.27103-0.16622-0.0137-12.665-0.38275-16.8-0.21656-2.4268-0.56513-4.1724-0.83326-4.173-0.04-8e-5 -0.0318 2.8701 0.0182 6.3782 0.0685 4.804 0.0106 6.453-0.23443 6.6809-0.25183 0.2342-0.29544 0.17776-0.19304-0.24982 0.15757-0.65795-0.20589-9.1505-0.47967-11.208-0.39686-2.982-0.68817-0.1721-0.82143 7.9235-0.0731 4.4384-0.21506 8.427-0.31556 8.8635-0.14546 0.6319-0.50089 0.9556-1.7431 1.5875-2.5942 1.3196-2.3285 1.5589 1.4795 1.3326 1.8014-0.10707 3.3789-0.25826 3.5056-0.33596zm25.764-4e-3c0.0822-0.2434-0.3699-0.33073-1.7119-0.33073-2.5855 0-2.8292-0.23609-2.6161-2.5346 0.0934-1.007 0.22569-2.9621 0.29406-4.3445l0.12431-2.5135-0.48545 2.6458c-0.29645 1.6157-0.79709 3.2639-1.2859 4.2333-0.44022 0.87312-0.87747 1.9447-0.97166 2.3812l-0.17125 0.79375h3.3561c2.4489 0 3.3863-0.0894 3.4678-0.33073zm-17.853-0.73715c0.5431-0.36904 0.98746-0.78576 0.98746-0.92604 0-0.35591-0.30859-0.30499-0.91046 0.15025-0.96336 0.72865-3.2878 0.22806-3.6794-0.79238-0.22669-0.59074-0.90172-0.49814-1.1081 0.15201-0.2151 0.67771 0.31263 1.2694 1.5249 1.7096 1.3683 0.49693 2.1249 0.42723 3.1855-0.29347zm-13.17-0.59195c0.72654-0.39678 1.2968-0.84049 1.2672-0.98601-0.0724-0.35651-1.0067-0.47946-2.0937-0.27553-0.80783 0.15154-0.89138 0.25288-0.89138 1.0813 0 0.50273 0.0893 0.91128 0.19844 0.90788 0.10914-3e-3 0.79288-0.33083 1.5194-0.72761zm31.355-0.25841c6e-5 -0.54882-0.11875-0.595-1.5213-0.59126-1.7172 5e-3 -2.3369 0.27117-2.095 0.90141 0.13308 0.3468 0.49784 0.41576 1.8906 0.35743 1.5918-0.0667 1.7257-0.11847 1.7257-0.66758zm-13.763-0.55002c0.78528-0.78527 1.3236-2.2625 1.326-3.6392 2e-3 -1.1199-0.55741-3.8144-0.79195-3.8144-0.25956 0-0.52439 2.3592-0.5272 4.6964-1e-3 1.1009-0.11503 1.9182-0.26688 1.9182-0.30849 0-0.32576-3.9288-0.0265-6.0318 0.24244-1.7038-9e-3 -1.9247-1.7787-1.5632-1.5643 0.31957-3.8694 0.28353-4.5316-0.0709-0.54758-0.29305-3.9354-0.37448-4.6218-0.11108-0.35808 0.1374-0.41851 0.78692-0.41851 4.4979 0 4.0395 0.0335 4.3373 0.48816 4.3373 0.26849 0 0.68106-0.21316 0.91684-0.47369 0.38632-0.42688 0.39037-0.60099 0.041-1.7618-0.40646-1.3506-0.52964-4.2603-0.18924-4.4701 0.10914-0.0673 0.21615 0.45402 0.2378 1.1584 0.0434 1.4126 0.79342 3.9597 1.1659 3.9597 0.21062 0 0.11935-1.1362-0.16557-2.061-0.14892-0.4834 0.19545-4.2888 0.38818-4.2896 0.0878-2.6e-4 0.11993 0.83682 0.0714 1.8603-0.15667 3.3062 1.1348 6.0778 2.832 6.0778 1.4908 0 1.5005-0.0225 1.4036-3.2448-0.0493-1.6379 0.0315-3.27 0.1799-3.6344 0.21216-0.52102 0.2729-0.14005 0.28611 1.7944 0.0178 2.6058 0.39037 3.9419 1.3984 5.015 0.75841 0.80729 1.679 0.75399 2.5825-0.14953zm-2.6412-0.69114c0-0.22687 0.11906-0.41249 0.26459-0.41249 0.14552 0 0.26458 0.11204 0.26458 0.24897s-0.11906 0.32255-0.26458 0.41249c-0.14553 0.0899-0.26459-0.0221-0.26459-0.24897zm1.3229-0.26458c0-0.22687 0.11906-0.41249 0.26458-0.41249s0.26459 0.11203 0.26459 0.24897c0 0.13693-0.11907 0.32255-0.26459 0.41249-0.14552 0.0899-0.26458-0.0221-0.26458-0.24897zm-4.7625-0.13229c0-0.13693 0.11906-0.32256 0.26458-0.41249 0.14552-0.0899 0.26459 0.0221 0.26459 0.24897s-0.11907 0.41249-0.26459 0.41249-0.26458-0.11204-0.26458-0.24897zm-5.0271-0.92604c0-0.22687 0.11907-0.41249 0.26459-0.41249s0.26458 0.11203 0.26458 0.24896c0 0.13694-0.11906 0.32256-0.26458 0.41249-0.14552 0.0899-0.26459-0.0221-0.26459-0.24896zm8.2021-0.26459c0-0.20969 0.11906-0.45484 0.26458-0.54478 0.14552-0.0899 0.26459 0.0816 0.26459 0.38126 0 0.29963-0.11907 0.54478-0.26459 0.54478s-0.26458-0.17156-0.26458-0.38126zm-3.4396-0.52916c0-0.22687 0.11906-0.41249 0.26458-0.41249s0.26458 0.11203 0.26458 0.24896c0 0.13694-0.11906 0.32256-0.26458 0.41249-0.14552 0.0899-0.26458-0.0221-0.26458-0.24896zm-1.5875-0.66146c0-0.13693 0.11907-0.32255 0.26459-0.41249 0.14552-0.0899 0.26458 0.0221 0.26458 0.24897s-0.11906 0.41249-0.26458 0.41249-0.26459-0.11204-0.26459-0.24897zm6.35-0.41249c0-0.21828 0.11906-0.39688 0.26458-0.39688s0.26458 0.1786 0.26458 0.39688-0.11906 0.39687-0.26458 0.39687-0.26458-0.17859-0.26458-0.39687zm-1.1921-0.92841c-0.21295-0.34456 0.0946-1.3206 0.41617-1.3206 0.13571 0 0.24675 0.35719 0.24675 0.79375 0 0.78087-0.33927 1.0505-0.66292 0.5268zm-8.5975-0.36328c0-0.21828 0.11906-0.47046 0.26458-0.5604 0.14553-0.0899 0.26459 0.0151 0.26459 0.23336 0 0.21828-0.11906 0.47046-0.26459 0.56039-0.14552 0.0899-0.26458-0.0151-0.26458-0.23335zm3.8063-0.27904c-0.20846-0.54324 0.0851-1.2864 0.42519-1.0763 0.14654 0.0906 0.26645 0.38875 0.26645 0.66261 0 0.65184-0.48819 0.94381-0.69164 0.41365zm2.0146-0.0168c0-0.21828 0.11906-0.39688 0.26458-0.39688s0.26458 0.1786 0.26458 0.39688-0.11906 0.39687-0.26458 0.39687-0.26458-0.17859-0.26458-0.39687zm-0.26459-1.7198c0-0.74972 0.33633-1.0552 0.63308-0.57509 0.19092 0.30892-0.11831 1.3688-0.39935 1.3688-0.12855 0-0.23373-0.35719-0.23373-0.79375zm3.9688 0.1479c0-0.35521 0.11906-0.71942 0.26459-0.80936 0.15436-0.0954 0.26458 0.17364 0.26458 0.64584 0 0.44515-0.11906 0.80937-0.26458 0.80937-0.14553 0-0.26459-0.29063-0.26459-0.64585zm-8.857-0.66643c-0.22439-0.36306-0.0258-0.63562 0.36528-0.50122 0.16014 0.055 0.18061 0.24183 0.0496 0.45268-0.16537 0.26617-0.27264 0.27872-0.41489 0.0485zm13.151 7.993c1.2258-1.3943 2.3805-5.2648 2.0326-6.813-0.12717-0.56592-0.18735-0.63218-0.20967-0.23083-0.0172 0.3096-0.1941 0.69803-0.39307 0.86316-0.52211 0.43331-0.92388-0.15426-1.1291-1.6512-0.15506-1.1313-0.2282-1.2301-0.91077-1.2301-0.40819 0-0.8131 0.11476-0.8998 0.25504-0.0867 0.14027 0.0254 0.96113 0.24897 1.8241 0.51728 1.9962 0.52074 4.5438 8e-3 5.7713-0.29966 0.7172-0.32448 1.0438-0.0999 1.3144 0.40474 0.48768 0.86436 0.45271 1.3528-0.10293zm-0.0605-1.5057c0-0.22687 0.11906-0.41249 0.26458-0.41249s0.26458 0.11203 0.26458 0.24896c0 0.13694-0.11906 0.32256-0.26458 0.41249-0.14552 0.0899-0.26458-0.0221-0.26458-0.24896zm-0.1323-1.7354c-0.1056-0.17088-0.0729-0.42975 0.0726-0.57527 0.17639-0.17639 0.32859-0.16102 0.4566 0.0461 0.10561 0.17088 0.073 0.42975-0.0726 0.57528-0.17639 0.17639-0.3286 0.16102-0.45661-0.0461zm1.1906-0.79375c0-0.14552 0.11906-0.26458 0.26458-0.26458s0.26459 0.11906 0.26459 0.26458-0.11907 0.26458-0.26459 0.26458-0.26458-0.11906-0.26458-0.26458zm-1.0583-1.4552c0-0.21828 0.11906-0.39687 0.26458-0.39687s0.26458 0.17859 0.26458 0.39687-0.11906 0.39688-0.26458 0.39688-0.26458-0.1786-0.26458-0.39688zm-0.79375-1.8521c0-0.24254 0.12799-0.39831 0.28442-0.34616 0.15644 0.0521 0.28443 0.20791 0.28443 0.34616 0 0.13824-0.12799 0.29402-0.28443 0.34616-0.15643 0.0522-0.28442-0.10363-0.28442-0.34616zm5.1824 6.84c0.90939-1.0788 1.8001-3.9917 1.808-5.913 9e-3 -2.2033-0.2519-3.1759-0.85227-3.1759-0.56511 0-1.0115 1.4624-1.2115 3.9688-0.0755 0.94588-0.44093 2.6462-0.81215 3.7785-0.37121 1.1323-0.67493 2.1226-0.67493 2.2006 0 0.3467 1.2428-0.26582 1.7428-0.85894zm-0.15529-1.665c0-0.13693 0.11906-0.32256 0.26458-0.41249 0.14552-0.0899 0.26459 0.0221 0.26459 0.24897s-0.11907 0.41249-0.26459 0.41249-0.26458-0.11204-0.26458-0.24897zm0.79375-2.5292c0-0.21828 0.11906-0.39687 0.26458-0.39687s0.26459 0.17859 0.26459 0.39687-0.11907 0.39688-0.26459 0.39688-0.26458-0.1786-0.26458-0.39688zm0.26458-1.8365c0-0.22687 0.11906-0.41249 0.26459-0.41249 0.14552 0 0.26458 0.11204 0.26458 0.24897s-0.11906 0.32255-0.26458 0.41249c-0.14553 0.0899-0.26459-0.0221-0.26459-0.24897zm-0.79375-0.66145c0-0.13694 0.11906-0.32256 0.26459-0.4125 0.14552-0.0899 0.26458 0.0221 0.26458 0.24897s-0.11906 0.41249-0.26458 0.41249c-0.14553 0-0.26459-0.11203-0.26459-0.24896zm0.68341-1.0384c-0.11398-0.18442-0.13578-0.40676-0.0484-0.49409 0.23679-0.23679 0.49497 0.11147 0.36708 0.49515-0.0896 0.26887-0.15195 0.26866-0.31864-1e-3zm-2.9803 7.6904c0.70433-0.77827 1.1979-2.5378 1.3957-4.9753 0.15442-1.9032 0.12322-2.2706-0.18402-2.167-0.2604 0.0877-0.34521 0.47034-0.28638 1.2919 0.0858 1.1986-1.0504 5.3633-1.547 5.6702-0.31551 0.195-0.33859 0.65641-0.0328 0.65641 0.12297 0 0.41749-0.21427 0.65449-0.47616zm-23.765-0.47201c0.72761-0.2273 1.7577-0.41223 2.289-0.41095l0.9661 2e-3 0.10575-9.045c0.0938-8.0216 0.01-9.8581-0.4306-9.4176-0.0667 0.0667-0.26381 3.2139-0.43802 6.9938-0.45208 9.8089-0.83793 9.4574-0.66086-0.60192 0.13894-7.8932 0.12355-8.2682-0.33935-8.2682-0.39709 0-0.61038 0.51504-1.1779 2.8443-1.116 4.5804-1.7203 7.9278-2.018 11.179-0.31669 3.4576-0.36522 6.7062-0.1041 6.9674 0.23815 0.23815 0.29226 0.23089 1.808-0.24262zm34.462-0.26754c0.58051-0.0886 0.86104-0.27773 0.8634-0.58222 4e-3 -0.46616-1.0921-5.1927-1.7831-7.6919l-0.39266-1.4201-0.54625 0.54625c-0.52881 0.52881-0.53732 0.66713-0.26662 4.3305 0.2581 3.4927 0.25204 4.556-0.0207 3.6237-0.0593-0.20273-0.24352-1.5592-0.40938-3.0144-0.43649-3.8296-0.41149-3.7724-1.6338-3.7403l-1.0365 0.0272v8.2933l2.1828-0.12037c1.2006-0.0662 2.5698-0.1794 3.0427-0.25155zm-11.311-6.9864c0-1.3934 0.4036-1.783 0.6851-0.66146 0.22795 0.90824 0.63781 0.83326 0.63781-0.11668 0-0.94146 0.45695-1.324 0.5764-0.48256 0.15457 1.0889 0.61551 0.46631 0.54943-0.74214-0.0496-0.90688 0.12116-1.5145 0.72761-2.589 0.88785-1.5732 0.97575-2.0227 0.39552-2.0227-0.21828 0-0.39687 0.17157-0.39687 0.38126 0 0.2097-0.11727 0.45374-0.2606 0.54232-0.1606 0.0993-0.20114-0.13627-0.10564-0.61375 0.20921-1.046-0.3581-1.3793-0.99953-0.5872-0.4521 0.55832-0.48632 0.56439-0.48632 0.0862 0-0.28291-0.0783-0.59272-0.17409-0.68848-0.29082-0.29082-0.88424 0.37766-0.88424 0.99609 0 0.31945-0.23532 1.4657-0.52294 2.5473-0.70961 2.6684-0.6987 5.2738 0.0221 5.2738 0.12995 0 0.23628-0.59531 0.23628-1.3229zm5.2095-1.5214c-0.0666-0.25466-0.121-0.0463-0.121 0.46302 0 0.50933 0.0545 0.71769 0.121 0.46302 0.0666-0.25466 0.0666-0.67138 0-0.92604zm-12.29-0.56443c-0.0381-0.34682 0.061-0.78759 0.2203-0.97949 0.15926-0.1919 0.21536-0.58273 0.12466-0.86851s-0.0416-0.59581 0.10911-0.68895c0.15071-0.0932 0.27257-0.54965 0.2708-1.0145-3e-3 -0.83636 0.12592-1.8911 0.43537-3.5571 0.14364-0.77334 0.0968-0.85949-0.46562-0.85585-0.34394 2e-3 -0.78086 0.10269-0.97094 0.22324s-0.62923 1.5772-0.9759 3.2371c-0.34666 1.6598-0.80584 3.5094-1.0204 4.1102l-0.39007 1.0923 1.366-0.034c1.2742-0.0317 1.3613-0.0763 1.2967-0.66455zm2.3525 0.47993c0.38101-0.20391 0.6301-0.19878 0.89174 0.0184 0.26163 0.21714 0.51073 0.22227 0.89173 0.0184 0.29078-0.15562 0.75579-0.28294 1.0334-0.28294 0.55055 0 0.96675-1.0508 1.2576-3.175 0.22236-1.6241 0.89312-3.1313 1.4758-3.3163 0.49616-0.15748 0.93885-1.6478 0.6808-2.2919-0.076-0.18971-0.14758-0.0403-0.15907 0.33211-0.0115 0.37237-0.18769 0.90514-0.39155 1.1839-0.34631 0.4736-0.39045 0.43345-0.67166-0.61088-0.27715-1.0293-0.3706-1.1178-1.1799-1.1178h-0.87891l0.0987 4.4318c0.11469 5.1479-0.23958 5.1516-0.65497 7e-3 -0.14951-1.8517-0.34729-3.4888-0.43951-3.638-0.23676-0.38309-1.4507-0.33804-1.6013 0.0594-0.23163 0.6113-1.3702 8.266-1.2594 8.4667 0.14561 0.26356 0.27941 0.25108 0.90646-0.0845zm-6.2924-0.46612c0.47809-0.52829 2.13-5.1413 2.4021-6.708 0.16476-0.94865 0.14602-0.97702-0.69931-1.0583-0.80706-0.0776-0.94363 0.0339-1.927 1.5729-0.58208 0.91105-1.8068 2.7268-2.7216 4.0349-1.5758 2.2534-1.7523 2.6898-0.85912 2.1249 0.24607-0.15562 0.51248-0.14209 0.72826 0.037 0.18715 0.15531 0.69716 0.21101 1.1334 0.12377 0.44724-0.0894 0.79309-0.0461 0.79309 0.0993 0 0.42573 0.68135 0.29155 1.1502-0.22651zm19.064 0.11568c0.91928-0.3841 2.0837-1.7159 2.3942-2.7384 0.27704-0.91215-0.50782-0.48148-1.171 0.64257-0.37734 0.63955-0.95642 1.1005-1.8643 1.4841-0.72431 0.30601-1.3169 0.65182-1.3169 0.76845 0 0.32923 0.98331 0.25053 1.958-0.15672zm-3.2635-0.43426c0.67154-0.3594 0.69898-1.5782 0.0355-1.5782-0.26194 0-0.60448-0.12824-0.76121-0.28497-0.20358-0.20357-0.45246-0.0497-0.87133 0.53849-0.47165 0.66237-0.52343 0.89928-0.26472 1.211 0.37646 0.45361 1.1395 0.50019 1.8617 0.11366zm2.8901-0.91522c0.81382-0.42085 1.5904-1.3545 1.5904-1.912 0-0.19198-0.57053 0.0723-1.3229 0.61286-1.6707 1.2003-1.7443 0.77067-0.0889-0.51904 0.78577-0.61218 1.0678-0.96143 0.77636-0.96143-1.0869 0-2.8042 1.3785-2.8042 2.251 0 1.0233 0.57482 1.1876 1.8492 0.52866zm-21.842-1.8715c1.1344-1.6228 1.2055-1.8265 1.1761-3.3682-0.0469-2.4577-0.26659-3.2139-0.96259-3.313-0.58735-0.0837-0.59361-0.0504-0.59361 3.153 0 1.7806-0.0483 3.1879-0.10742 3.1273-0.0591-0.0606-0.23758-1.4099-0.39667-2.9984-0.15908-1.5885-0.33183-2.9307-0.38387-2.9828-0.052-0.052-0.30004-0.0158-0.5511 0.0805-0.38344 0.14714-0.43275 0.4127-0.30822 1.6599 0.0815 0.81659 0.22441 2.6439 0.31749 4.0607 0.0931 1.4168 0.26672 2.5158 0.38585 2.4422 0.11913-0.0736 0.75994-0.91112 1.424-1.8611zm19.923-0.13527c0.18831-0.36908 0.32594-1.6498 0.32472-3.0218l-2e-3 -2.3812-0.92003 1.7075c-1.2788 2.3734-1.2756 4.7159 6e-3 4.4011 0.14552-0.0357 0.41166-0.35324 0.59142-0.70555zm5.0212-1.5899c-0.17422-0.27897-0.42825-0.47005-0.56451-0.42463-0.4405 0.14683-0.77125 0.89322-0.59702 1.3473 0.15697 0.40905 0.2185 0.41005 0.82397 0.0133 0.55816-0.36573 0.60777-0.50328 0.33756-0.93596zm-3.5446 0.61864c0.0632-0.10914 0.19465-0.85753 0.29216-1.6631 0.16423-1.3568 0.13745-1.4647-0.36384-1.4647-0.4626 0-0.54406 0.17415-0.56136 1.2001-0.0111 0.66005-0.0601 1.4084-0.10889 1.6631-0.0862 0.45051 0.51101 0.6635 0.74193 0.26458zm1.4471-0.55463c0.46908-0.29762 0.68193-1.8453 0.40224-2.9247-0.21921-0.84595-0.25731-0.87052-0.68566-0.44217-0.32635 0.32634-0.45355 0.8935-0.45355 2.0222 0 1.5684 0.0992 1.7494 0.73697 1.3447zm-3.5838-3.3276 0.9513-2.4932-0.72539-1.7908c-0.75417-1.8618-1.1791-2.31-1.4241-1.5019-0.079 0.26061-0.38347 1.1042-0.67658 1.8745-0.57777 1.5186-1.3638 4.7337-1.3638 5.5785 0 0.51163 0.42238 0.70353 1.739 0.79004 0.45803 0.0301 0.70502-0.37459 1.4996-2.4572zm-1.6302 1.8097c0.0127-0.30822 0.0754-0.37092 0.15985-0.15985 0.0764 0.191 0.067 0.4192-0.0209 0.50712-0.0879 0.0879-0.15045-0.0683-0.13896-0.34727zm-0.81464-0.78731c0-0.22687 0.121-0.33771 0.2689-0.2463 0.14789 0.0914 0.2004 0.27702 0.11667 0.41249-0.22681 0.36698-0.38557 0.29855-0.38557-0.16619zm1.2019-0.0984c-0.0837-0.13546-0.0312-0.32109 0.11668-0.41249 0.14789-0.0914 0.2689 0.0194 0.2689 0.2463 0 0.46475-0.15877 0.53318-0.38558 0.16619zm0.27884-1.2999c-0.0916-0.14815-0.0375-0.34904 0.12003-0.44642 0.40679-0.25141 0.66925 0.093 0.32966 0.43255-0.19002 0.19002-0.33801 0.19458-0.44969 0.0139zm-1.0652-0.80493c-0.17178-0.27795 1.6625-1.7445 1.8933-1.5137 0.18624 0.18625-0.65575 1.1653-1.2976 1.5088-0.26236 0.14041-0.51069 0.14246-0.59569 5e-3zm0.11366-1.2929c0-0.4225 1.0535-1.476 1.2648-1.2648 0.0893 0.0893-0.15875 0.48347-0.55121 0.87593-0.39247 0.39247-0.71357 0.56745-0.71357 0.38886zm-14.817 3.2335c0-1.4769-0.35739-3.0291-0.69742-3.0291-0.39768 0-0.48703 1.7148-0.18472 3.545 0.15563 0.94225 0.20114 0.98935 0.52625 0.54474 0.19574-0.26769 0.35589-0.74498 0.35589-1.0607zm8.1566-1.5842c2.1499-0.42512 3.509-1.0212 1.8976-0.83233-0.50933 0.0597-2.0571 0.31538-3.4396 0.56815-1.3824 0.25278-3.1386 0.40815-3.9026 0.34528-0.89042-0.0733-1.3891-0.0115-1.3892 0.17204-1.8e-4 0.3964 4.3671 0.23462 6.8338-0.25314zm12.969-1.0301c0.96402-0.93604 1.6686-1.7861 1.5656-1.8891-0.20418-0.20419-0.51307-4e-3 -2.541 1.6483-0.74265 0.60502-1.4936 1.1478-1.6688 1.2062-0.42608 0.14202-0.0377 0.73642 0.48118 0.73642 0.22564 0 1.199-0.76586 2.163-1.7019zm-20.35-0.21632c0.0102-0.25466-0.10046-0.46302-0.24599-0.46302-0.14552 0-0.25621 0.44648-0.24598 0.99218 0.0149 0.79592 0.0636 0.88751 0.24598 0.46302 0.12507-0.29104 0.23576-0.73752 0.24599-0.99218zm7.5072 0.22187c0.99002-0.18847 1.9425-0.49673 2.1167-0.68502 0.25423-0.27487 0.21234-0.30066-0.21253-0.13088-1.1191 0.44718-4.3264 0.9042-6.4162 0.91426-1.448 7e-3 -2.1828 0.11177-2.1828 0.31133 0 0.36065 3.9028 0.12182 6.6948-0.40969zm6.2335-3.301c0.91522-2.1552 1.0025-2.7323 0.47883-3.1668-0.26985-0.22396-0.48619-0.10888-0.93397 0.49676-0.32052 0.43353-0.78756 0.78445-1.0379 0.77983-0.40067-7e-3 -0.4072-0.047-0.0546-0.33073 0.22028-0.17728 0.61937-0.66407 0.88686-1.0818 0.47643-0.74397 0.47517-0.77061-0.062-1.3078l-0.54832-0.54832-0.42891 1.0265c-0.73452 1.758-0.78998 3.5749-0.14756 4.8342 0.30847 0.60466 0.57576 1.6101 0.59397 2.2344l0.0331 1.135 0.19519-1.0583c0.10736-0.58208 0.56871-1.9379 1.0252-3.013zm-1.0221-0.0298c0-0.14552 0.11906-0.26458 0.26458-0.26458s0.26459 0.11906 0.26459 0.26458-0.11907 0.26459-0.26459 0.26459-0.26458-0.11907-0.26458-0.26459zm-0.52917-0.79375c0-0.14552 0.11906-0.26458 0.26459-0.26458 0.14552 0 0.26458 0.11906 0.26458 0.26458s-0.11906 0.26459-0.26458 0.26459c-0.14553 0-0.26459-0.11907-0.26459-0.26459zm1.3229-0.64584c0-0.22687 0.11906-0.41249 0.26458-0.41249s0.26459 0.11204 0.26459 0.24897-0.11907 0.32255-0.26459 0.41249c-0.14552 0.0899-0.26458-0.0221-0.26458-0.24897zm-15.924 4.0345c1.7954-0.56728 2.3973-0.86376 2.2162-1.0915-0.13676-0.17199-0.3305-0.87826-0.43054-1.5695-0.15609-1.0786-0.26738-1.2568-0.78507-1.2568-1.0526 0-3.109 0.73946-3.7617 1.3527-0.70568 0.66296-0.80085 0.4346-0.2329-0.55892 0.42667-0.74639 0.50543-2.0648 0.15627-2.6161-0.17773-0.28066-0.43178-0.0937-1.0785 0.79375-0.46529 0.63848-1.0867 1.6371-1.3808 2.2192-0.29415 0.58209-0.77986 1.3258-1.0794 1.6527-0.47887 0.52269-0.50265 0.6726-0.19724 1.2433 0.19101 0.35691 0.59832 0.69825 0.90512 0.75853 1.045 0.20531 3.1992-0.14711 5.6685-0.92733zm22.509-0.67665 1.3942-1.2568-1.8339-2.2775c-1.0086-1.2526-2.298-2.9781-2.8652-3.8345-1.2655-1.9105-3.6898-4.3717-5.3324-5.4133-0.67457-0.4278-1.3222-0.77782-1.4393-0.77782-0.43855 0-0.1925 0.76453 0.29594 0.91955 0.98778 0.31351 5.2144 5.092 7.367 8.3288l2.1706 3.2639-0.92212 1.0207c-0.50717 0.56138-0.92212 1.0799-0.92212 1.1522 0 0.43804 0.87814-0.0354 2.0872-1.1252zm-16.159 0c0.0456-0.47294 3e-3 -0.85989-0.0942-0.85989-0.0974 0-0.64307 0.36903-1.2126 0.82007-0.57747 0.45737-1.2087 0.75359-1.4271 0.66976-0.21544-0.0827-0.39171-0.029-0.39171 0.11917 0 0.16088 0.61313 0.23751 1.5214 0.19014 1.5041-0.0785 1.5223-0.0891 1.6043-0.93925zm3.1582 0.40071c0.1819-0.14688 0.33073-0.74147 0.33073-1.3213 0-0.89589-0.0695-1.0273-0.46302-0.87511-0.25466 0.0985-0.79292 0.2457-1.1961 0.32706-0.86084 0.17371-0.86304 0.1767-1.1011 1.4948l-0.18393 1.0183 1.1414-0.18832c0.62775-0.10357 1.2902-0.30849 1.4721-0.45538zm-2.597-2.3185c0.51884-0.14414 1.2171-0.26272 1.5518-0.26353 0.85047-2e-3 2.1697-0.73102 2.1697-1.1989 0-0.48026-0.20867-0.47891-1.0583 7e-3 -0.81571 0.4663-1.1346 0.49325-0.99826 0.0844 0.0573-0.17187 0.50651-0.44797 0.99826-0.61354s0.94097-0.44166 0.99826-0.61354c0.17118-0.51353-0.87412-0.35401-1.6429 0.25072-0.50529 0.39746-0.79872 0.4805-0.99705 0.28217-0.30332-0.30332 0.98917-1.2496 2.1047-1.541 0.32742-0.0855 0.59531-0.27783 0.59531-0.42736 0-0.49962-2.4053 0.0396-3.841 0.86101-0.76658 0.43859-2.0614 0.93152-2.8774 1.0954-1.1213 0.22518-1.4836 0.41075-1.4836 0.75974 0 0.25607 0.26519 0.53157 0.59531 0.61845l0.59531 0.15667-0.59531 0.41836c-0.7915 0.55623-0.75269 0.91752 0.0985 0.91752 0.54572 0 0.6318 0.0748 0.40317 0.35025-0.21159 0.25495-0.20962 0.43132 7e-3 0.64816 0.22082 0.22083 0.57415 0.0615 1.3655-0.61588 0.58717-0.50259 1.4921-1.0317 2.0109-1.1759zm5.188 1.7828c0.0274-0.0349 0.41951-1.4921 0.87126-3.2384s0.89842-3.4431 0.99259-3.7709c0.14388-0.5007 0.0197-0.65915-0.77732-0.99218-0.5217-0.21798-1.0524-0.39633-1.1794-0.39633-0.36882 0-0.92333 2.7376-0.78292 3.8653 0.0705 0.56623-0.0168 1.3272-0.1941 1.691-0.17726 0.3638-0.39831 1.2418-0.49122 1.9512l-0.16892 1.2897 0.84006-0.16801c0.46203-0.0924 0.8625-0.19654 0.88994-0.23141zm8.7861-0.18074c0.32742-0.27315 0.59531-0.58391 0.59531-0.69059 0-0.57238-4.2112-6.4174-5.9727-8.2899-2.1504-2.2858-3.0858-2.9407-4.2006-2.9407-0.85844 0-0.84867 0.32677 0.053 1.773 0.51857 0.83176 0.95563 1.2131 1.5214 1.3274 0.50747 0.10252 1.4632 0.83674 2.65 2.0357 1.4788 1.494 2.1244 2.4255 3.175 4.5811 0.72533 1.4882 1.3783 2.7046 1.4511 2.7032 0.0728-1e-3 0.40018-0.22609 0.72761-0.49923zm-27.732-0.39176c0.19524-0.23525 0.24605-0.73225 0.13524-1.3229-0.1859-0.99094-0.64777-1.3084-0.64777-0.44524 0 0.87603-0.77825 0.8926-1.2708 0.027-0.52799-0.92791-0.96356-1.0518-0.6933-0.19717 0.26191 0.82824 0.89403 1.7511 1.4032 2.0486 0.58211 0.34012 0.71051 0.32693 1.0734-0.11032zm1.3074-2.1416c0.96868-1.6418 4.9338-6.8167 6.6439-8.671 1.6771-1.8186 1.9367-2.5009 0.62416-1.6409-1.1447 0.75006-5.2631 4.8169-6.3879 6.308-1.7966 2.3816-2.1281 3.1068-1.8625 4.0749 0.12975 0.47294 0.28027 0.85989 0.3345 0.85989 0.0542 0 0.34575-0.4189 0.64784-0.9309zm-1.8021-0.71706c0.52959-1.305 2.2841-3.7921 3.9341-5.5768 1.5172-1.641 4.6221-4.4175 5.4827-4.9029 0.33855-0.19095 0.40323-0.35986 0.21193-0.55341-0.43944-0.44463-4.2521 1.8859-6.1535 3.7614-1.9381 1.9116-4.8159 5.9746-4.8159 6.7992 0 0.71992 0.48729 1.6484 0.77257 1.4721 0.11927-0.0737 0.37492-0.52353 0.56811-0.99959zm9.5769-0.52084 1.0571-0.31673-0.14518-1.9197c-0.11943-1.579-0.29208-2.1332-0.973-3.1229-0.4553-0.66175-0.9204-1.2032-1.0336-1.2032-0.32639 0-1.2534 1.0981-1.88 2.2271-0.51242 0.92317-0.52953 1.062-0.15656 1.2708 0.28646 0.16031 0.3674 0.43886 0.25623 0.88179-0.10616 0.42297-0.0501 0.64746 0.16163 0.64746 0.19883 0 0.26805 0.21441 0.17907 0.55468-0.33765 1.2912 0.46337 1.6011 2.5343 0.98068zm-1.6062-0.82498c-0.17359-0.40966-0.31563-0.86206-0.31563-1.0053s-0.18578-0.61977-0.41285-1.0589c-0.22707-0.43911-0.36453-0.99874-0.30547-1.2436 0.17262-0.71572 1.5637 2.4739 1.4487 3.3218l-0.0991 0.7309zm4.7985 0.0169c0.42142-0.30815 0.42369-0.42882 0.0329-1.7449-0.26681-0.89844-0.81151-1.8388-1.4942-2.5794-1.3554-1.4704-1.6942-1.4852-0.94146-0.041 0.383 0.73477 0.62111 1.7434 0.68707 2.9104 0.0922 1.632 0.151 1.7859 0.68196 1.7859 0.31957 0 0.78476-0.14897 1.0338-0.33105zm0.35691-5.337c-0.51225-0.47475-0.72338-0.53163-1.0599-0.28559-0.37685 0.27556-0.35584 0.40197 0.20365 1.2253 0.34311 0.50494 0.7846 1.448 0.98109 2.0956l0.35725 1.1775 0.0788-1.81c0.0709-1.6278 0.0144-1.8697-0.5609-2.4029zm3.9584 3.6482c1.013-0.1486 1.1069-0.23258 1.2539-1.1209 0.2361-1.4276 0.19826-2.1509-0.11254-2.1509-0.36417 0-2.7361 2.3785-3.1579 3.1666-0.30812 0.57574-0.28921 0.60386 0.2962 0.44042 0.34393-0.096 1.1181-0.24687 1.7204-0.33522zm0.68383-4.264c-0.17152-0.49032-0.70658-0.40171-1.2588 0.20846-0.36278 0.40086-0.67874 0.49729-1.2316 0.37585l-0.74367-0.16334v3.1541l1.6749-1.6222c0.92118-0.89219 1.6228-1.771 1.5592-1.9529zm-6.591-0.37289c-0.0807-0.42001-0.35639-0.76146-0.684-0.84713-0.99998-0.2615-1.0789 0.16578-0.16795 0.90926 0.49401 0.40318 0.91821 0.71246 0.94267 0.68727 0.0244-0.0252-0.0164-0.36241-0.0907-0.7494zm3.011 0.0176c0.20907-0.20907 0.45595-0.1998 0.89187 0.0335 0.51036 0.27314 0.65669 0.24886 0.95445-0.15835 0.19342-0.26452 0.35167-0.56402 0.35167-0.66556s0.2083-0.16808 0.4629-0.14787c0.2931 0.0233 0.49395-0.18161 0.54756-0.55856 0.0658-0.46267 0.25744-0.59531 0.86003-0.59531 0.6871 0 0.77535-0.0914 0.77535-0.80306 0-0.44168 0.19267-1.0971 0.42817-1.4565 0.34328-0.52391 0.36356-0.73132 0.10231-1.0461-0.4411-0.5315-0.79507-0.25698-0.79507 0.61661 0 0.39559-0.17831 0.97384-0.39625 1.285-0.58405 0.83385-3.5355 2.727-4.2514 2.727-0.80493 0-2.1652-1.9405-2.4576-3.5061-0.11752-0.62903-0.34352-1.3757-0.50223-1.6593-0.27143-0.48502-0.29914-0.47355-0.46647 0.19318-0.0978 0.38986-0.0919 0.84797 0.0132 1.018s0.0415 0.40164-0.14128 0.51462c-0.45763 0.28283-0.0874 0.79375 0.57521 0.79375 0.51736 0 0.52307 0.0319 0.11668 0.65215-0.58883 0.89867-0.54248 1.2918 0.13153 1.1155 0.49318-0.12897 0.54132-0.0586 0.40974 0.59936-0.19476 0.97376 9e-3 1.138 0.78154 0.63148 0.59653-0.39086 0.63113-0.38285 0.63113 0.14606 0 0.60112 0.50624 0.74128 0.97701 0.27051zm1.4313-1.913c0.58546-0.40026 0.8731-0.79245 0.82471-1.1245-0.0409-0.28042-0.1004-1.1647-0.13229-1.9651-0.0319-0.80037-0.17704-1.4509-0.32256-1.4456-0.14552 5e-3 -1.1273 0.1066-2.1817 0.22517l-1.9171 0.21558 0.16794 1.0977c0.19519 1.2759 0.61681 2.1808 1.4051 3.016 0.70705 0.74907 1.0362 0.74612 2.1558-0.0193zm-1.6145-0.12988c0-0.13868 0.30238-0.30995 0.67195-0.3806 0.42405-0.0811 0.63602-0.0192 0.57459 0.1676-0.12078 0.36724-1.2465 0.55961-1.2465 0.213zm-0.16274-0.95922c-0.0804-0.20944-0.0207-0.5964 0.13256-0.8599 0.25489-0.43819 0.27936-0.42827 0.28672 0.11622 4e-3 0.32743 0.12711 0.59532 0.27263 0.59532s0.26458 0.11906 0.26458 0.26458c0 0.40878-0.79195 0.31256-0.95649-0.11622zm-1.1602-1.7359c0-0.14552 0.23812-0.26459 0.52916-0.26459s0.52917 0.11907 0.52917 0.26459-0.23813 0.26458-0.52917 0.26458-0.52916-0.11906-0.52916-0.26458zm2.1167 0.0283c0-0.2682 0.80587-0.63355 0.99041-0.44901 0.0665 0.0665 0.0424 0.2479-0.0535 0.4031-0.21108 0.34155-0.93692 0.37712-0.93692 0.0459zm-1.9844-0.82205c0.0899-0.14552 0.33509-0.26459 0.54478-0.26459s0.38126 0.11907 0.38126 0.26459-0.24515 0.26458-0.54478 0.26458-0.4712-0.11906-0.38126-0.26458zm1.9844 0.0283c0-0.33075 0.7469-0.58274 0.91605-0.30905 0.0766 0.12391-0.0484 0.2973-0.27775 0.38532-0.55463 0.21283-0.6383 0.20283-0.6383-0.0763zm3.1768 1.5548c0.29792-0.71925 0.22808-2.4998-0.11137-2.8392-0.0727-0.0727-0.31593-0.0617-0.54048 0.0245-0.2919 0.11201-0.40829 0.52999-0.40829 1.4662 0 2.1854 0.46728 2.7798 1.0601 1.3485zm1.1814-3.3925c-0.57286-0.11905-0.70409 0.048-0.4854 0.61795 0.17164 0.44727 0.20023 0.4458 0.54866-0.0283 0.31967-0.43496 0.31143-0.51181-0.0633-0.58968zm-2.7699-0.0572c2.5918-0.60847 3.8022-1.4644 3.2706-2.3126-0.39428-0.62908-1.2627-0.69827-2.0759-0.1654-1.4159 0.92774-4.1235 0.93368-5.9688 0.0131-0.63108-0.31483-0.84733-0.30893-1.5738 0.0429-0.4632 0.22433-1.0289 0.69284-1.2571 1.0411-0.35604 0.54337-0.36219 0.68457-0.0434 0.99486 1.0348 1.0071 4.3009 1.1719 7.6484 0.38601zm0.23708-2.9961c0.22156-0.26697 0.22581-0.56684 0.0158-1.1191-0.36396-0.9573-0.68282-1.153-1.8871-1.158-1.0125-4e-3 -2.6 1.0344-2.6 1.701 0 0.7759 3.8895 1.277 4.4712 0.57611zm-31.518 63.393 0.0807-2.4143-0.82906-0.42872c-1.1088-0.57339-1.2606-0.32607-0.41593 0.67775 0.38191 0.45388 0.69438 1.1138 0.69438 1.4664 0 0.61742-0.06855 0.64115-1.8521 0.64115-1.6542 0-1.8521-0.0546-1.8521-0.51133 0-0.28714 0.2437-0.58869 0.5558-0.68775 0.37369-0.1186 0.46836-0.26384 0.28894-0.44326-0.17942-0.17942-0.59344-0.15908-1.2636 0.0621-0.87651 0.28927-0.94328 0.36804-0.55352 0.65304 0.66597 0.48696 0.53682 0.84233-0.3722 1.0241-1.2574 0.25148-1.9219-0.22829-1.7255-1.2458 0.08871-0.45953 0.39905-1.0332 0.68965-1.2748 0.65967-0.54845 0.66821-0.75134 0.0316-0.75134-0.82308 0-1.0242 0.54764-1.1415 3.1089-0.10409 2.2712 0.04363 3.0081 0.41108 2.0505 0.12329-0.32129 0.73812-0.39688 3.2281-0.39688 2.8738 0 3.0851 0.0355 3.217 0.53999 0.07766 0.29699 0.27316 0.496 0.43444 0.44224 0.17776-0.0593 0.32501-1.0485 0.37391-2.512zm59.41 1.9563c0.12244-0.3191 1.6883-0.87113 5.8688-2.069 0.58208-0.16679 1.1606-0.35675 1.2856-0.42212 0.23149-0.12108-1.143-0.67564-4.4606-1.7997-1.0592-0.35888-2.1008-0.91114-2.433-1.29-0.56304-0.6421-0.8295-0.61966-0.72609 0.0611 0.0276 0.1819 0.0651 0.57588 0.0833 0.87551 0.0188 0.3101 0.15353 0.47034 0.3127 0.37197 0.15378-0.095 0.5705-0.0998 0.92604-0.0106 0.53157 0.13341 0.64642 0.32687 0.64642 1.0889 0 0.74748-0.13664 0.98893-0.7066 1.2486-0.55816 0.25431-0.72953 0.25312-0.8158-6e-3 -0.26026-0.7808-0.59427-0.22139-0.59427 0.9953 0 1.2598 0.3109 1.7442 0.61348 0.95567zm1.9536-3.0132c-0.11266-0.58937-0.0577-0.62886 0.67255-0.48281 0.43738 0.0875 0.89943 0.15905 1.0268 0.15905 0.5682 0 0.14898 0.42551-0.67255 0.68265-0.84612 0.26483-0.91192 0.24183-1.0268-0.35889zm4.541-2.7712c-0.0323-0.1819 0.1688-0.78923 0.44701-1.3496l0.50584-1.0189-0.72741-0.62569c-1.4061-1.2095-3.7279-1.4072-5.9232-0.50433-1.5993 0.65771-1.779 2.1653-0.34642 2.9061 1.2399 0.64117 1.4972 0.45102 0.51357-0.37956l-0.91605-0.77353 1.0583-0.45518c1.5322-0.659 4.673-0.83278 5.1286-0.28377 0.30053 0.36212 0.23561 0.51835-0.45789 1.1019-0.88146 0.7417-0.86231 1.352 0.048 1.5295 0.31511 0.0615 0.60792 0.12794 0.65068 0.14776 0.0428 0.0198 0.0513-0.1128 0.0189-0.2947zm-70.786-0.22569c0.35228-0.1605 0.90555-0.76341 1.2295-1.3398 0.62276-1.108 2.0465-1.9957 2.7611-1.7215 0.25594 0.0982 0.42092 0.47391 0.42092 0.95853 0 0.62949-0.13903 0.83191-0.66146 0.96303-0.8198 0.20576-0.84109 0.47103-0.06615 0.82412 0.96228 0.43844 1.0984 0.29033 1.1868-1.2909 0.0732-1.3089 8e-3 -1.5549-0.5111-1.9182-0.32728-0.22924-1.0588-0.41679-1.6256-0.41679-0.84414 0-1.2045 0.17975-1.9916 0.99355-0.52858 0.54645-1.2022 1.3369-1.4968 1.7565-0.42177 0.60064-0.66102 0.72322-1.1245 0.57613-0.74258-0.23569-0.76402-1.0567-0.04083-1.5633l0.54789-0.38376-0.60676-0.425c-0.33372-0.23374-0.66957-0.42414-0.74633-0.42309-0.07676 1e-3 -0.16779 0.58893-0.20228 1.3064-0.05439 1.1314 0.02932 1.3769 0.63099 1.8502 0.78156 0.61477 1.363 0.67905 2.2963 0.25383zm2.4271-4.5022c3.0113-0.83405 3.3185-2.7712 0.59531-3.7536-0.7095-0.25597-0.55357 0.0982 0.39688 0.90134l0.8599 0.72666-1.0583 0.45306c-1.4826 0.63466-4.3458 0.80665-5.0161 0.3013-0.50399-0.37994-0.49498-0.41019 0.32847-1.1031 0.69877-0.58798 0.79922-0.80109 0.57504-1.22-0.1494-0.27915-0.51259-0.50755-0.8071-0.50755s-0.46754 0.10992-0.3845 0.24427c0.08303 0.13435-0.09632 0.6634-0.39857 1.1757-0.43515 0.73754-0.4896 1.0434-0.26158 1.4695 0.67523 1.2617 3.1166 1.8814 5.1706 1.3124zm69.105-1.071c-0.0291-0.82097-0.18054-1.4111-0.37914-1.4773-0.1819-0.0606-0.33073 0.0784-0.33073 0.30881 0 0.35879-0.45353 0.41892-3.1594 0.41892-1.8547 0-3.228-0.11104-3.3256-0.2689-0.30072-0.48658-0.65879 0.0191-0.65879 0.93036 0 0.87955 0.53069 1.5829 0.73404 0.97289 0.16742-0.50228 5.9863-0.42471 6.4097 0.0854 0.57355 0.69109 0.75968 0.43666 0.70987-0.97026zm-6.4579-2.2768c-0.32375-0.25142-0.62141-0.75479-0.66146-1.1186l-0.0728-0.66146 3.3734-0.074c2.1857-0.048 3.3734 0.0219 3.3734 0.19844 0 0.14987 0.11907 0.27249 0.26459 0.27249 0.28892 0 0.37178-2.4504 0.0923-2.7299-0.0948-0.0948-0.30618 0.0109-0.46984 0.23467-0.31764 0.4344-1.0525 0.50299-4.564 0.42601-1.8201-0.0399-2.1803-0.12091-2.2697-0.51045-0.0584-0.25466-0.20209 0.47949-0.31919 1.6314-0.18992 1.8683-0.1608 2.1326 0.26974 2.4474 0.26546 0.19411 0.72778 0.35027 1.0274 0.34703 0.53341-6e-3 0.5325-0.0154-0.0439-0.46302zm-67.338-1.1188c0.18176-0.29104 0.56023-0.52917 0.84106-0.52917s1.4407-0.28842 2.5774-0.64094c1.1368-0.35251 2.4115-0.71629 2.8327-0.80839 1.16-0.25363 0.5969-0.59195-2.9-1.7424-1.7139-0.56385-3.2079-1.1737-3.3201-1.3552-0.4695-0.75968 0.32748-1.0093 3.2227-1.0093 2.5956 0 2.8989 0.0512 3.2467 0.54785 0.35791 0.51099 0.39301 0.44422 0.52159-0.99218 0.25758-2.8773 0.24391-2.9502-0.6387-3.4066-1.0139-0.52433-1.3157-0.29067-0.54809 0.42444 0.34116 0.31784 0.57606 0.85614 0.57606 1.3201 0 0.78161-0.0037 0.78345-1.5958 0.78345-1.2048 0-1.6348-0.10159-1.7549-0.41466-0.08752-0.22807-0.02425-0.54954 0.1406-0.71438 0.50757-0.50757 0.33607-0.70251-0.52246-0.59385-1.065 0.13479-1.2326 0.3257-0.65597 0.74735 0.7181 0.52509-0.02304 0.99921-1.2506 0.80001-1.1832-0.19201-1.2602-0.68897-0.26714-1.7255 0.87176-0.90992 0.60636-1.3039-0.38192-0.56692-0.7079 0.52789-0.72487 0.60581-0.7982 3.6644-0.04556 1.9002 0.03222 3.2322 0.19844 3.3984 0.18809 0.18809 0.27336 0.17432 0.27336-0.0441 0-0.17463 0.28398-0.3175 0.63108-0.3175 0.76855 0 3.3377 0.80631 3.3377 1.0475 0 0.29735-3.5523 1.1108-4.0376 0.92459-0.38493-0.14772-0.46031-0.0204-0.46031 0.77771 0 1.0704 0.24173 1.2108 0.73235 0.42518zm69.372-3.6038c0.7657-0.6443 0.85762-0.66304 1.2979-0.26458 0.26061 0.23585 0.84867 0.42882 1.3068 0.42882 1.1463 0 1.6999-0.9179 1.8054-2.9937 0.10212-2.0084-0.17132-4.5704-0.44119-4.1337-0.15135 0.24489-0.63543 0.2119-2.078-0.14162-1.0344-0.25349-1.8807-0.55429-1.8807-0.66846 0-0.29542 3.6231-1.1461 4.1007-0.96277 0.31009 0.11899 0.39534-0.0633 0.38877-0.83147-7e-3 -0.84061-0.0563-0.92093-0.33749-0.55153-0.34674 0.4556-1.3461 0.83462-4.8135 1.8255-1.1642 0.33271-2.2191 0.69422-2.3442 0.80337-0.12516 0.10914 1.1845 0.62881 2.9104 1.1548 3.5587 1.0846 3.9317 1.2521 3.9317 1.7659 0 0.2921-0.72337 0.38327-3.5057 0.44187-2.2745 0.0479-3.5057-0.0218-3.5057-0.19844 0-0.14975-0.13472-0.27226-0.29938-0.27226-0.42542 0-0.14987 3.8243 0.31599 4.3856 0.86805 1.0459 2.0619 1.1266 3.1481 0.21263zm-2.1064-1.2354c-0.36381-0.1834-0.69692-0.57862-0.74026-0.87827-0.0713-0.49274 0.0719-0.55025 1.4977-0.6017 1.6088-0.0581 2.0097 0.13894 1.7358 0.85282-0.11228 0.2926-1.4633 1.0145-1.8051 0.9645-0.0147-2e-3 -0.32432-0.15395-0.68812-0.33735zm3.4492-0.5732c-0.51628-0.62208-0.069-0.93763 1.3289-0.93763 1.1063 0 1.3073 0.077 1.3073 0.50086 0 0.84847-2.0172 1.1827-2.6362 0.43677zm-63.536-7.6034c0.0223-1.2736-0.0645-1.57-0.56166-1.9182-1.0198-0.71428-1.3741-0.48672-0.62611 0.40218 1.0781 1.2813 0.92664 1.4691-1.3393 1.6607-3.2497 0.2747-4.3692 0.21375-4.9002-0.26676-0.46274-0.41877-0.48386-0.37904-0.48386 0.91043 0 1.4488 0.27274 1.875 0.79617 1.2443 0.25081-0.30221 0.96137-0.39396 3.051-0.39396 3.0088 0 3.5485 0.11373 3.5875 0.75591 0.0595 0.98121 0.45184-0.9906 0.47642-2.3946zm66.012-1.279c0.37644-0.36121 0.53352-0.9809 0.6301-2.4859 0.0893-1.3912 0.037-2.0048-0.17072-2.0048-0.16466 0-0.29938 0.1786-0.29938 0.39688 0 0.33242-0.55856 0.39687-3.4396 0.39687-2.9389 0-3.4396-0.06-3.4396-0.41249 0-0.22687-0.11907-0.3389-0.26459-0.24897-0.32839 0.20296-0.35224 2.6927-0.0277 2.8933 0.13027 0.0805 0.30513-0.0315 0.38857-0.24897 0.10588-0.27591 0.54125-0.39536 1.441-0.39536 1.2682 0 1.2944 0.0169 1.5966 1.0257 0.51637 1.7235 2.343 2.2756 3.5852 1.0837zm-2.3535-0.70218c-0.52997-0.12913-1.1906-0.79121-1.1906-1.1932 0-0.11771 0.83343-0.21402 1.8521-0.21402 1.3967 0 1.8521 0.0896 1.8521 0.36448 0 0.73848-1.3921 1.316-2.5135 1.0427zm-63.897-1.1582c0-0.48255-0.10892-0.74204-0.26975-0.64265-0.14837 0.0917-0.68415 0.03-1.1906-0.13719-0.77501-0.25578-0.92087-0.42771-0.92087-1.0854 0-0.86963 0.4175-1.1353 1.7839-1.1353 0.83919 0 0.86191-0.03 0.86191-1.1377 0-1.0954-0.32689-1.5173-0.60799-0.78476-0.07449 0.19412-1.129 0.62711-2.3434 0.9622-3.4484 0.95154-4.7215 1.3763-4.7215 1.5752 0 0.10099 0.56555 0.37407 1.2568 0.60683 4.0866 1.3762 5.5133 1.9376 5.7017 2.2441 0.32984 0.53647 0.44987 0.41234 0.44987-0.46523zm-3.6463-1.6612c-0.69209-0.38423-0.51793-0.70448 0.38312-0.70448 0.44097 0 0.61736 0.15119 0.61736 0.52916 0 0.61021-0.16504 0.63913-1.0005 0.17532zm65.866-5.2512c1.2137-0.44375 2.7735-0.98081 3.4663-1.1935 0.69276-0.21266 1.1918-0.4964 1.1089-0.63052-0.0829-0.13412-0.26666-0.24386-0.40836-0.24386-0.71949 0-5.9939-2.3024-6.4828-2.8298-0.76288-0.82316-0.95009-0.76819-0.8519 0.25016 0.0696 0.72219 0.18104 0.8493 0.69567 0.79377 1.1399-0.12299 1.6362 0.37275 1.6362 1.6342 0 1.0256-0.0771 1.172-0.69973 1.3282-0.38632 0.097-0.8248 0.0505-0.97896-0.10361-0.48153-0.48153-0.57143-0.31594-0.53081 0.97771 0.0564 1.7968 0.071 1.8368 0.47422 1.3049 0.2005-0.26449 1.3576-0.84396 2.5713-1.2877zm-0.18748-2.1268c-0.0933-0.42496-0.1137-0.82865-0.0453-0.89709 0.16547-0.16547 2.3072 0.69793 2.3072 0.9301 0 0.0997-0.47075 0.30684-1.0461 0.46042-1.0262 0.27391-1.0493 0.26452-1.2158-0.49343zm-61.664 0.27581c-0.10616-0.17177-0.17192-0.85638-0.14613-1.5214 0.052-1.3415-0.0851-1.65-0.93147-2.0955-1.0502-0.55279-1.6852-0.3379-3.0843 1.0438-1.5575 1.5382-2.4366 1.9905-2.9846 1.5358-0.55271-0.45871-0.45653-1.2962 0.14886-1.2962 0.82432 0 0.90458-0.50607 0.12713-0.80165-0.84629-0.32176-0.79129-0.36692-1.0067 0.82668-0.25817 1.4303 0.55776 2.3562 2.0763 2.3562 1.0175 0 1.2884-0.14492 2.4726-1.3229 1.3977-1.3904 1.7735-1.5368 2.5279-0.98521 0.57497 0.42043 0.33992 1.1389-0.44515 1.3606l-0.57701 0.16299 0.62462 0.52454c0.68413 0.57451 1.5126 0.72128 1.198 0.21224zm65.736-3.458c-0.0359-0.1819 0.14105-0.71876 0.39331-1.193 0.57579-1.0825 0.30628-1.6691-1.066-2.3203-3.2886-1.5606-8.4573 1.0276-5.569 2.7886 1.3012 0.79337 1.762 0.63462 0.71761-0.24726l-0.91605-0.77354 1.0276-0.43546c1.5305-0.64853 4.3941-0.81723 5.0578-0.29795 0.51984 0.40672 0.51401 0.42614-0.33072 1.1018-1.0149 0.8118-1.0701 1.1112-0.26459 1.435 0.83237 0.33457 1.0253 0.32281 0.95003-0.0579zm-69.676-1.6763c1.7462-0.40163 3.2729-0.81351 3.3925-0.91529s-0.71379-0.51578-1.8521-0.92c-4.1431-1.4713-4.98-1.8485-4.98-2.2445 0-0.63067 6.0967-0.71925 6.7826-0.0985 0.47574 0.43054 0.49348 0.39567 0.49348-0.97025 0-1.102-0.0706-1.3463-0.3175-1.0993-0.17463 0.17462-0.88341 0.3175-1.5751 0.3175-1.22 0-1.2655-0.0286-1.5219-0.95734-0.38381-1.39-0.99849-1.9531-2.1322-1.9531-1.5334 0-1.9308 0.46811-2.1615 2.5458-0.11115 1.0009-0.20821 2.453-0.21568 3.2268-0.01254 1.2985 0.02801 1.3937 0.52633 1.2355 0.51633-0.16388 3.3169 0.53443 3.7854 0.94386 0.29674 0.25934-3.3742 1.0877-3.9097 0.88222-0.28979-0.1112-0.41564-4e-3 -0.41564 0.35388 0 0.66126 0.27072 0.9257 0.63711 0.62234 0.15891-0.13157 1.7177-0.56783 3.4639-0.96947zm-3.5219-6.3915c0.148-0.76853 1.4012-1.2125 2.4477-0.86715 0.86141 0.28429 1.342 0.83993 1.0119 1.17-0.08699 0.087-0.92095 0.15816-1.8533 0.15816-1.4691 0-1.6833-0.0615-1.6063-0.46101zm74.033 2.4454c0-1.5033-0.24732-1.7748-0.96384-1.0583-0.30219 0.30219-1.0572 0.39687-3.1644 0.39687-2.216 0-2.7979-0.0791-2.9198-0.39687-0.31565-0.82258-0.62485-0.34831-0.62485 0.95844 0 1.1781 0.0522 1.312 0.39914 1.0241 0.25791-0.21405 1.388-0.34253 3.194-0.36313 2.3521-0.0268 2.8612 0.0415 3.2138 0.43115 0.68285 0.75481 0.86603 0.54495 0.86603-0.99219zm-0.66751-2.5112c0.67145-0.25528 0.68779-0.31678 0.61253-2.305l-0.0773-2.0427-0.92425-0.18827c-0.89133-0.18156-1.5348-0.0141-0.86523 0.22519 0.17995 0.0643 0.58585 0.32639 0.90199 0.58238 1.0359 0.83879 0.4008 1.0803-2.8406 1.0803-2.454 0-3.0646-0.076-3.1877-0.39688-0.0838-0.21828-0.31815-0.39687-0.52086-0.39687-0.26044 0-0.36857 0.34932-0.36857 1.1906 0 0.88195 0.10289 1.1906 0.39687 1.1906 0.21829 0 0.39688-0.11907 0.39688-0.26459 0-0.16227 1.2788-0.26458 3.3073-0.26458 1.8589 0 3.3073 0.1076 3.3073 0.24568 0 0.37739-0.78579 1.0772-1.2095 1.0772-0.20789 0-0.37798 0.11906-0.37798 0.26458 0 0.33668 0.5673 0.33758 1.4492 2e-3zm-73.32-3.3096c0.12398-0.32309 0.75889-0.39688 3.415-0.39688 2.1849 0 3.3676 0.10489 3.5802 0.3175 0.24694 0.24695 0.3175-0.21398 0.3175-2.0742 0-2.3062-0.0241-2.4027-0.67391-2.6988-1.1059-0.50386-1.2651-0.35444-0.54024 0.507 0.44499 0.52883 0.68498 1.1314 0.68498 1.7198v0.90574h-1.7281c-1.3595 0-1.7637-0.0928-1.8951-0.43514-0.09891-0.25775 0.01233-0.56625 0.27289-0.75677 0.24193-0.1769 0.43986-0.39781 0.43986-0.49091 0-0.27738-1.0503-0.19217-1.6612 0.13478l-0.56812 0.30405 0.60767 0.22479c1.0273 0.38002 0.505 0.88691-0.9139 0.88691-1.2621 0-1.3033-0.0245-1.381-0.82295-0.05624-0.57745 0.12135-1.0624 0.59531-1.6257 0.88192-1.0481 0.85256-1.2284-0.11828-0.72635-0.69115 0.3574-0.79405 0.55494-0.79605 1.5281-0.0013 0.61473-0.07738 1.7428-0.16915 2.5068-0.10647 0.88638-0.068 1.3891 0.10628 1.3891 0.15022 0 0.34166-0.17859 0.42542-0.39687zm70.232-2.9982c1.3489-1.3886 1.9744-1.729 2.7343-1.4878 0.65451 0.20774 0.62916 1.0996-0.0373 1.3111-0.69709 0.22125-0.67235 0.5623 0.0546 0.7524 0.70042 0.18316 0.62881 0.26342 0.84834-0.95087 0.15198-0.84062 0.0783-1.0933-0.48204-1.6536-1.1582-1.1582-2.2639-0.88216-4.1926 1.0466-0.93728 0.93727-1.5907 1.1362-2.2861 0.69589-0.48587-0.30765-0.17511-1.092 0.50291-1.2693 0.72734-0.1902 0.66147-0.39521-0.30343-0.94447-0.84106-0.47877-1.3519-0.41544-0.8332 0.10328 0.15874 0.15874 0.22363 0.73944 0.14671 1.3129-0.19655 1.4654 0.43793 2.3624 1.6711 2.3624 0.76977 0 1.1542-0.22577 2.1767-1.2784zm-70.232-3.0872c0.23433-0.61066 6.148-0.57515 6.8288 0.041 0.46339 0.41936 0.48386 0.37395 0.48386-1.0733 0-1.5088-9.3e-4 -1.5106-0.58804-1.0993-0.32342 0.22653-1.1056 0.41188-1.7382 0.41188-1.0335 0-1.1416-0.0589-1.0656-0.58068 0.06347-0.4359 0.47602-0.73201 1.6545-1.1876 1.7559-0.67872 1.9957-0.92803 1.9895-2.0682l-4e-3 -0.79375-0.53016 0.71018c-0.29159 0.3906-0.92827 0.84157-1.4148 1.0022-0.48657 0.16058-1.0905 0.51945-1.3422 0.79748-0.44728 0.49424-0.4721 0.48812-1.1138-0.27455-0.78535-0.93333-2.0685-1.0508-3.0243-0.2768-0.54108 0.43814-0.63407 0.78045-0.71878 2.6458-0.05973 1.3154 0.0047 2.1426 0.16699 2.1426 0.14536 0 0.33282-0.1786 0.41659-0.39688zm-0.09568-2.0757c0-0.62086 0.93534-1.2316 1.8861-1.2316 1.0149 0 1.5534 0.38527 1.5534 1.1112 0 0.40977-0.24008 0.47625-1.7198 0.47625-1.2642 0-1.7198-0.0943-1.7198-0.35587zm74.083 0.22358c0-1.5478-0.0999-1.663-0.91047-1.0499-0.76549 0.57899-5.7684 0.55175-6.2546-0.0341-0.31841-0.38366-0.36835-0.37757-0.54297 0.0662-0.25778 0.65509-0.27974 2.2106-0.031 2.2 0.10914-5e-3 0.40817-0.16759 0.66452-0.36214 0.69528-0.52767 6.028-0.33639 6.3436 0.22754 0.44567 0.79636 0.73098 0.38747 0.73098-1.0476zm-0.81669-2.1518 0.83696-0.16739-0.1526-4.2751-0.92425-0.18832c-0.91586-0.18662-1.5286-0.0111-0.82862 0.23733 0.59383 0.2108 1.3877 1.1206 1.2177 1.3956-0.0867 0.14022-1.5235 0.25494-3.193 0.25494-2.454 0-3.0646-0.076-3.1877-0.39688-0.0838-0.21828-0.31815-0.39687-0.52086-0.39687-0.26044 0-0.36857 0.34932-0.36857 1.1906 0 0.88195 0.10289 1.1906 0.39687 1.1906 0.21829 0 0.39688-0.11907 0.39688-0.26459 0-0.16227 1.2788-0.26458 3.3073-0.26458 1.8589 0 3.3073 0.1076 3.3073 0.24568 0 0.37739-0.78579 1.0772-1.2095 1.0772-0.20789 0-0.37798 0.11906-0.37798 0.26458 0 0.30968 0.17292 0.3226 1.3 0.0972zm-72.832-2.8753c0.56938-0.56939 5.7054-0.57181 6.1775-3e-3 0.52343 0.63069 0.79617 0.20443 0.79617-1.2443 0-1.3325-6e-3 -1.3427-0.53034-0.86837-0.43753 0.39596-1.0196 0.48417-3.3262 0.50403-2.411 0.0208-2.857-0.0438-3.24-0.46891-0.42381-0.47042-0.45151-0.43409-0.60498 0.79375-0.21546 1.7238-0.03256 2.0471 0.7278 1.2868zm65.976-1.8666c0-0.24346 0.58417-0.66978 1.4309-1.0442 0.78698-0.34804 1.5164-0.77111 1.6208-0.94016 0.12701-0.20551 0.38628-0.06113 0.78244 0.4357 0.82867 1.0392 2.3241 1.0457 3.2116 0.0139 0.52963-0.61574 0.62717-1.0149 0.62717-2.5665 0-1.0105-0.068-1.8373-0.15119-1.8373-0.0831 0-0.32979 0.17859-0.54807 0.39688-0.60202 0.60202-6.0806 0.56876-6.7544-0.04101-0.46347-0.41944-0.48385-0.37314-0.48385 1.0993 0 1.5099 9e-3 1.5289 0.51843 1.068 0.28514-0.25804 1.059-0.53011 1.7198-0.60458 1.1422-0.12874 1.2014-0.1027 1.2014 0.52836 0 0.50844-0.20123 0.73683-0.85989 0.97597-2.1909 0.79546-2.7092 1.1788-2.7949 2.0671-0.0466 0.48301 0.0404 0.8599 0.19844 0.8599 0.15474 0 0.28134-0.18515 0.28134-0.41144zm4.1199-2.6502c-0.22867-0.22867-0.41577-0.65108-0.41577-0.93867 0-0.47282 0.15634-0.51535 1.6326-0.44412 1.8065 0.08716 2.1386 0.4086 1.2943 1.2529-0.64806 0.64806-1.9269 0.71423-2.5112 0.12993zm-64.772 1.2104c0.47482-0.2895 1.0663-0.95193 1.3143-1.4721 0.40496-0.84921 0.41066-1.0175 0.0559-1.6495-1.0486-1.8683-3.984-2.5178-6.0728-1.3438-1.6645 0.93549-2.0171 2.3225-0.92142 3.6246 1.1233 1.335 4.0868 1.778 5.6241 0.84075zm-4.7821-1.7769c-0.7716-0.08405-0.98829-0.21458-0.92298-0.55593 0.07204-0.37654 0.49738-0.45815 2.7281-0.52344 2.9888-0.08748 3.8334 0.04726 3.8334 0.61156 0 0.307-0.38666 0.39262-1.7859 0.39545-0.98227 0.0021-2.0241 0.0438-2.3151 0.09291-0.29104 0.04911-0.98291 0.03987-1.5375-0.02056zm34.346-2.4572c0.0899-0.14552 0.57321-0.26458 1.074-0.26458 0.84853 0 1.2561-0.36985 0.6355-0.57671-0.17268-0.05756-0.24647-1.0743-0.19843-2.734l0.0765-2.6424 0.65606 2.0505c0.36083 1.1278 0.72893 2.0505 0.81801 2.0505 0.0891 0 0.29642-0.44877 0.46075-0.99727s0.45107-1.2052 0.63719-1.4593c0.28688-0.39172 0.34588-0.15706 0.38748 1.5413 0.0375 1.5302-0.0406 2.0378-0.33073 2.1491-0.73606 0.28245-0.3675 0.61829 0.67853 0.61829 1.0045 0 1.3705-0.305 0.79375-0.66146-0.15181-0.09382-0.26458-1.4731-0.26458-3.2359 0-2.5397 0.0793-3.16 0.45712-3.5775 0.44229-0.48873 0.4274-0.50228-0.45908-0.41771-0.88366 0.0843-0.93512 0.15076-1.4493 1.8717-0.29322 0.98137-0.5954 1.785-0.67154 1.7859-0.0761 7.94e-4 -0.42215-0.8318-0.76895-1.8505-0.61215-1.7981-0.65634-1.8521-1.5152-1.8521-0.81523 0-1.2208 0.36712-0.63335 0.57326 0.13824 0.04851 0.2708 1.5417 0.29458 3.3182 0.036 2.6936-0.0296 3.3029-0.39524 3.6685-0.40824 0.40824-0.47206 0.40807-0.92567-0.0024-0.26795-0.2425-0.55454-0.77766-0.63686-1.1892-0.0823-0.41158-0.3341-0.93278-0.55953-1.1582-0.53896-0.53895-0.51985-0.67066 0.17943-1.2369 0.4406-0.35678 0.5893-0.75849 0.5893-1.592 0-1.6256-0.70997-2.1167-3.06-2.1167-1.7061 0-2.3355 0.27581-1.4259 0.62485 0.3222 0.12364 0.39687 0.74834 0.39687 3.32 0 1.8264-0.11203 3.2369-0.26458 3.3312-0.53824 0.33265-0.23059 0.53098 0.92735 0.59781 0.65412 0.03775 1.1893 0.02159 1.1893-0.0359 0-0.0575-0.17786-0.44558-0.39525-0.86239-0.21738-0.41682-0.39597-1.1448-0.39687-1.6177-1e-3 -0.73467 0.092-0.8599 0.64129-0.8599 0.54995 0 0.71256 0.21914 1.1245 1.5154 0.34035 1.071 0.67552 1.613 1.143 1.8482 0.80564 0.40538 0.98019 0.41652 1.1906 0.07604zm-3.9246-4.1451c-0.097-0.09701-0.17639-0.81513-0.17639-1.5958 0-1.0486 0.10903-1.4613 0.41739-1.5796 1.1066-0.42464 1.7904 2.2439 0.76676 2.9924-0.55125 0.40308-0.75137 0.43943-1.0078 0.18303zm-18.981 3.4938c1.5613-0.80736 2.1457-4.2922 1.0039-5.9865-0.33179-0.49234-0.89734-1.044-1.2568-1.2259-0.63668-0.32216-3.1671-0.47947-3.1671-0.19688 0 0.07788 0.19544 0.43989 0.43432 0.80447 0.36026 0.54982 0.40974 1.1447 0.29015 3.4879-0.0863 1.6911-0.26064 2.8639-0.43433 2.9217-0.15958 0.05319-0.29014 0.20586-0.29014 0.33925 0 0.38895 2.601 0.27929 3.4199-0.14417zm-1.5678-3.582c0-2.821 0.0687-3.4396 0.38187-3.4396 0.49828 0 1.1535 0.94932 1.4744 2.1362 0.18774 0.69435 0.14821 1.3582-0.14877 2.4984-0.43798 1.6815-0.77487 2.2446-1.343 2.2446-0.29089 0-0.36448-0.69444-0.36448-3.4396zm7.399 3.457c0.47741-0.89205 0.29742-1.1326-0.42325-0.56576-0.38343 0.3016-0.97874 0.54837-1.3229 0.54837-0.58776 0-0.62578-0.0955-0.62578-1.5719 0-1.7416 0.30412-2.1534 1.075-1.4557 0.49645 0.44928 0.51249 0.43816 0.51249-0.35534 0-0.8217-0.53942-1.481-0.73403-0.89722-0.0571 0.17129-0.27248 0.31143-0.47864 0.31143-0.27281 0-0.37483-0.35582-0.37483-1.3073 0-0.71902 0.10908-1.3747 0.24238-1.4571 0.34857-0.21542 1.642 0.32471 2.3373 0.97606 0.73481 0.68834 0.76441 0.34912 0.0691-0.79135-0.51062-0.83747-0.57228-0.8599-2.3646-0.8599-1.9137 0-2.4145 0.23337-1.7264 0.80447 0.55345 0.45933 0.51959 5.6556-0.0426 6.5377l-0.3794 0.59531h1.9812c1.6879 0 2.0217-0.07575 2.2551-0.51177zm4.2426 0.2755c0-0.12995-0.1786-0.30481-0.39688-0.38857-0.29207-0.11208-0.39687-0.57368-0.39687-1.7481 0-1.4276 0.0566-1.5958 0.53747-1.5958 0.29561 0 0.606 0.17859 0.68976 0.39688 0.31652 0.82483 0.68212 0.38815 0.49841-0.59531-0.22857-1.2236-0.36941-1.3828-0.7003-0.79155-0.14184 0.25345-0.43056 0.46082-0.64161 0.46082-0.28927 0-0.38373-0.36236-0.38373-1.472v-1.472l0.85805 0.08291c0.63825 0.06167 0.94941 0.27444 1.2147 0.83056 0.45874 0.96177 0.68579 0.72972 0.46058-0.47073l-0.17604-0.93838h-1.8245c-1.7406 0-2.5683 0.30064-1.7219 0.62543 0.32052 0.12299 0.39536 0.75586 0.39536 3.3433 0 2.5875-0.0748 3.2203-0.39536 3.3433-0.21744 0.08344-0.32948 0.2583-0.24897 0.38857 0.19075 0.30863 2.2318 0.30916 2.2318 5.29e-4zm5.4629-0.15144c1.4676-1.0279 1.937-4.5901 0.82097-6.2291-0.78032-1.1459-1.2881-1.4366-2.137-1.2236-0.79621 0.19984-1.361 1.1404-1.7636 2.9369-0.35577 1.5875 0.0375 3.1315 1.0575 4.1515 0.8506 0.8506 1.2302 0.91897 2.0222 0.36422zm-1.2692-0.6522c-0.0509-0.14994-0.0556-1.6442-0.0105-3.3205 0.062-2.2995 0.16755-3.0479 0.42986-3.0479 0.39408 0 0.69858 3.8626 0.4332 5.4953-0.1478 0.90931-0.6616 1.4355-0.85261 0.87316zm16.677 0.44461c-0.1368-1.5917-0.0229-1.7859 1.047-1.7859 0.84777 0 1.0699 0.11862 1.3425 0.71685 0.27463 0.60276 0.26034 0.76531-0.0898 1.0214-0.68548 0.50123-0.48557 0.64304 0.90647 0.64304 1.3446 0 1.6173-0.22003 0.95449-0.77015-0.33706-0.27973-1.2582-2.9399-2.0101-5.805-0.16616-0.63315-0.36977-1.0835-0.45247-1.0008-0.0827 0.0827-0.67002 1.659-1.3051 3.503-0.63512 1.8439-1.3633 3.5109-1.6182 3.7044-0.41567 0.31553-0.37379 0.35264 0.40649 0.36019 0.74305 0.0072 0.86245-0.0784 0.81875-0.5869zm0.5603-2.5402c0-0.47205 0.59027-1.8916 0.78656-1.8916 0.18077 0 0.53636 1.2498 0.53636 1.8852 0 0.12733-0.29766 0.23151-0.66146 0.23151s-0.66146-0.1013-0.66146-0.2251zm6.8803 2.3402c0.31145-0.4374 0.52193-1.003 0.46772-1.2568-0.0753-0.3526-0.20627-0.2586-0.55506 0.3984-0.25108 0.47294-0.57859 0.8599-0.7278 0.8599-0.52198 0-1.1053-1.993-1.1377-3.8874-0.0427-2.4928 0.32721-2.924 1.4215-1.6571 0.76563 0.88641 0.80188 0.89863 1.1892 0.40069 0.44092-0.56691 0.5449-1.3273 0.14795-1.082-0.13832 0.08549-0.69733-0.08352-1.2422-0.37557-0.94105-0.50438-1.0165-0.50807-1.5048-0.07367-1.4947 1.3297-1.6526 4.7935-0.31181 6.8398 0.58256 0.8891 1.5526 0.81751 2.2531-0.16628zm3.9677 0.56309c0-0.1277-0.1786-0.3804-0.39688-0.56156-0.30616-0.2541-0.39687-0.95752-0.39687-3.0777 0-2.4209 0.063-2.8023 0.52916-3.2014 0.82018-0.70226 0.64626-0.86465-0.92604-0.86465-1.3137 0-1.941 0.32313-1.1434 0.58899 0.20579 0.06859 0.35137 1.1384 0.42825 3.1468 0.0965 2.5213 0.0452 3.1141-0.29917 3.4585-0.22861 0.22861-0.34194 0.48935-0.25186 0.57944 0.25423 0.25423 2.4568 0.19291 2.4568-0.0684zm3.6404-0.36312c0.79383-0.84743 1.1221-1.873 1.1221-3.5057 0-1.6805-0.28165-2.5269-1.092-3.2819-0.77147-0.71874-1.591-0.704-2.2648 0.04074-1.6042 1.773-1.4826 5.7233 0.21274 6.9107 0.83536 0.5851 1.3602 0.54257 2.022-0.16386zm-1.3474-0.37483c-0.097-0.09701-0.17639-1.5853-0.17639-3.3073 0-2.4737 0.0761-3.1309 0.36226-3.1309 0.44802 0 0.68928 1.3508 0.69316 3.881 4e-3 2.3824-0.26685 3.1694-0.87903 2.5572zm3.836-1.0804c-0.17766-3.9344-0.0815-3.9878 1.55-0.8599l1.449 2.7781 0.0737-3.649c0.046-2.2757 0.17043-3.5892 0.33073-3.4901 0.14138 0.08737 0.25705-0.02676 0.25705-0.25363 0-0.28193-0.25123-0.41249-0.79375-0.41249-0.8255 0-0.99114 0.22595-0.51481 0.70227 0.15395 0.15395 0.24082 0.9779 0.19386 1.8389l-0.0851 1.5599-0.98094-2.0505c-0.90396-1.8896-1.0438-2.0505-1.7814-2.0505-0.78504 0-1.059 0.33815-0.53585 0.66146 0.15237 0.09417 0.26459 1.4968 0.26459 3.3073 0 1.8104-0.11222 3.2131-0.26459 3.3073-0.46883 0.28975-0.28187 0.66146 0.33269 0.66146 0.57657 0 0.59407-0.0711 0.50468-2.0505zm6.1509 1.0583c0.32421-0.25466 1.9799-0.93927 3.6792-1.5214 1.6994-0.58208 3.09-1.1242 3.0903-1.2047 2.6e-4 -0.08052-0.98174-0.5346-2.1823-1.0091-3.5204-1.3913-4.6609-1.9425-4.807-2.3231-0.24311-0.63353-0.68311-0.3812-0.68311 0.39175 0 0.90365 0.2347 1.192 0.67365 0.82773 0.57651-0.47846 1.7076 0.24306 1.7076 1.0893 0 0.4013 0.0619 0.89097 0.13758 1.0882 0.0865 0.22532-0.17494 0.47647-0.70361 0.67602-0.72292 0.27287-0.88987 0.25341-1.1875-0.13844-0.19047-0.25077-0.35482-0.39642-0.36523-0.32366-0.13823 0.96651-0.19874 2.9104-0.0906 2.9104 0.0778 0 0.40678-0.20836 0.73099-0.46302zm2.1736-3.0452c-0.0874-0.32603-0.16051-0.68207-0.16249-0.79121-6e-3 -0.33107 0.76848-0.22322 1.6424 0.22868 0.88371 0.45698 0.75389 0.66304-0.62361 0.98984-0.57076 0.13541-0.72626 0.05781-0.85628-0.42732zm-69.127 2.8468c0.12416-0.32356 0.76477-0.39688 3.4679-0.39688 2.034 0 3.3156 0.10227 3.3156 0.26458 0 0.14552 0.11906 0.26458 0.26458 0.26458s0.26459-0.59531 0.26459-1.3229c0-1.3615-0.21965-1.6178-0.79375-0.92604-0.20099 0.24218-0.78085 0.39688-1.4876 0.39688-0.95666 0-1.1582-0.08645-1.1582-0.49677 0-0.60673 0.34713-0.87572 1.7198-1.3327 1.4503-0.48279 1.9846-1.0168 1.9831-1.9819l-1e-3 -0.81889-0.594 0.6913c-0.3267 0.38022-1.0107 0.84631-1.52 1.0358s-1.1224 0.511-1.3623 0.71455c-0.37898 0.3215-0.48319 0.30392-0.79375-0.13388-0.9028-1.2727-2.457-1.3301-3.4044-0.12565-0.41566 0.52842-0.52498 1.0732-0.52498 2.6161 0 1.8145 0.26833 2.4809 0.62485 1.5518zm-0.09568-2.196c0-0.75568 0.55029-1.1112 1.7198-1.1112 1.1695 0 1.7198 0.35557 1.7198 1.1112 0 0.40976-0.24008 0.47625-1.7198 0.47625s-1.7198-0.06649-1.7198-0.47625zm28.391-14.358c-1.7153-0.23108-3.6795-1.1625-4.2331-2.0074-0.83801-1.279 0.63271-2.6285 3.4247-3.1425 0.94847-0.1746 0.99218-0.22875 0.99218-1.2289 0-2.0187 1.0772-2.8636 3.6508-2.8636 1.5598 0 1.5607-4.76e-4 2.029-1.039 0.74604-1.6544 1.7587-2.4558 3.2893-2.6028 0.72652-0.06981 1.6064-0.05528 1.9553 0.03229 0.88973 0.22331 2.0266 1.4208 2.6295 2.7698 0.37564 0.84046 0.62334 1.1017 0.93217 0.98322 1.0999-0.42208 2.6892-0.63345 3.3906-0.45092 0.96445 0.25099 1.7015 1.5995 1.7021 3.114l5.3e-4 1.0868 1.6298 0.17035c2.997 0.31324 4.158 1.5992 2.6875 2.9768-2.5706 2.4082-8.2115 2.7867-12.279 0.82414l-1.8096-0.87304-1.1334 0.59282c-2.7513 1.439-5.9871 2.0447-8.8578 1.6579zm5.6253-1.3892c0.81103-0.34201 1.4516-0.73083 1.4234-0.86405-0.0896-0.42384-2.1712-0.92155-4.0976-0.97971-2.063-0.06229-3.2964 0.46027-3.2964 1.3966 0 1.4077 3.136 1.6425 5.9706 0.44715zm-4.1186-0.4448c-0.46096-0.64735-0.48993-0.79375-0.1571-0.79375 0.22445 0 0.5928 0.35719 0.81856 0.79375 0.22576 0.43656 0.29645 0.79375 0.1571 0.79375s-0.5077-0.35719-0.81856-0.79375zm-1.2049 0.24153c-0.0978-0.1582-0.0721-0.39335 0.0572-0.52256 0.13685-0.13684 0.37118-0.01676 0.56128 0.28764 0.26861 0.43011 0.2585 0.52256-0.0572 0.52256-0.21093 0-0.4635-0.12944-0.56127-0.28764zm2.4259-0.36451c-0.23502-0.35868-0.42731-0.73045-0.42731-0.82615 0-0.27337 0.79445 0.45605 1.0821 0.99352 0.39123 0.73102-0.15814 0.5906-0.65478-0.16737zm1.1602 0.12298c-0.1691-0.31597-0.24792-0.63402-0.17516-0.70678 0.0728-0.07276 0.27064 0.12623 0.43975 0.4422 0.1691 0.31597 0.24792 0.63402 0.17516 0.70678-0.0728 0.07276-0.27065-0.12623-0.43975-0.4422zm0.9525-0.15875c-0.0942-0.24538-0.11167-0.50569-0.0389-0.57845 0.0728-0.07276 0.20933 0.06848 0.3035 0.31386 0.0942 0.24538 0.11167 0.50569 0.0389 0.57845-0.0728 0.07276-0.20934-0.06848-0.3035-0.31386zm0.76729-0.10583c-0.0899-0.14552-0.0374-0.26458 0.11668-0.26458 0.15411 0 0.2802 0.11906 0.2802 0.26458s-0.0525 0.26458-0.11668 0.26458c-0.0642 0-0.19026-0.11906-0.2802-0.26458zm14.095 1.3044c2.3799-0.82963 0.2586-2.9285-2.5229-2.4963-2.708 0.42079-4.031 0.76436-4.031 1.0468 0 0.17149 0.74414 0.56564 1.6536 0.8759 2.6946 0.91921 3.6036 1.0256 4.9002 0.5736zm-2.8413-0.45384c-0.0111-0.44995 0.78036-1.6443 1.0897-1.6443 0.26532 0-9e-3 0.59374-0.6734 1.4552-0.23953 0.31078-0.41132 0.38883-0.41626 0.18913zm1.0499 0.0879c0-0.44199 0.67684-1.4677 0.96851-1.4677 0.45764 0 0.44652 0.14261-0.0729 0.93535-0.37327 0.56968-0.89561 0.88014-0.89561 0.53231zm1.315-0.39459c0.40394-0.75477 0.80164-0.91514 0.80164-0.32324 0 0.28406-0.18833 0.58874-0.41852 0.67707-0.6368 0.24436-0.68128 0.20328-0.38312-0.35383zm-3.119-0.41161c0.16576-0.3638 0.40133-0.66146 0.52349-0.66146 0.31618 0 0.26123 0.32317-0.1462 0.8599-0.51366 0.67667-0.7253 0.56536-0.37729-0.19844zm-1.7679-0.13229c-0.0899-0.14552-0.0374-0.26458 0.11668-0.26458 0.15411 0 0.2802 0.11906 0.2802 0.26458s-0.0525 0.26458-0.11668 0.26458c-0.0642 0-0.19026-0.11906-0.2802-0.26458zm0.92605 0.03123c0-0.14552 0.11906-0.33817 0.26458-0.4281 0.14552-0.08994 0.26458-0.04446 0.26458 0.10106 0 0.14552-0.11906 0.33817-0.26458 0.4281-0.14552 0.08994-0.26458 0.04446-0.26458-0.10106zm-6.0854-1.3445c0-0.38312-3.1709-2.9453-4.1527-3.3556-1.9082-0.79729-3.29-0.24544-2.6888 1.0739 0.47474 1.0419 1.8532 1.7546 4.1368 2.1387 2.6271 0.4419 2.7048 0.44601 2.7048 0.14301zm-1.4552-0.53881c-0.0899-0.14552-0.0374-0.26458 0.11668-0.26458 0.15411 0 0.2802 0.11906 0.2802 0.26458s-0.0525 0.26458-0.11668 0.26458c-0.0642 0-0.19026-0.11906-0.2802-0.26458zm-1.7198-0.79375c0-0.48261 0.1098-0.75712 0.26458-0.66146 0.14552 0.08994 0.26459 0.38759 0.26459 0.66146s-0.11907 0.57152-0.26459 0.66146c-0.15478 0.09566-0.26458-0.17885-0.26458-0.66146zm0.81464 0.37483c0.0127-0.30822 0.0754-0.37092 0.15985-0.15985 0.0764 0.191 0.067 0.4192-0.0209 0.50712-0.0879 0.08792-0.15045-0.06835-0.13896-0.34727zm-1.873-0.7717c0-0.50932 0.11906-0.92604 0.26458-0.92604s0.26458 0.41672 0.26458 0.92604-0.11906 0.92604-0.26458 0.92604-0.26458-0.41672-0.26458-0.92604zm-0.88195 0.48507c-0.28-0.28-0.20453-1.9403 0.0882-1.9403 0.14552 0 0.26458 0.47625 0.26458 1.0583 0 1.0814-0.0438 1.1909-0.35278 0.88194zm-1.1751-1.0643c-0.22689-0.40362-0.23985-0.63227-0.0427-0.7541 0.40523-0.25045 0.56919 0.0036 0.46169 0.71532l-0.0933 0.61803zm11.764 2.0094c1.4236-0.28022 2.8648-1.0914 3.3636-1.8931 0.73718-1.1849-1.1761-1.9373-2.8012-1.1015-1.4551 0.74838-3.9194 2.7584-3.9194 3.1969 0 0.43472 0.17417 0.42422 3.3571-0.20231zm-2.4311-0.23947c0.0899-0.14552 0.21602-0.26458 0.2802-0.26458 0.0642 0 0.11667 0.11906 0.11667 0.26458s-0.12609 0.26458-0.2802 0.26458-0.20661-0.11906-0.11667-0.26458zm0.94693-0.41892c0.0127-0.30822 0.0754-0.37092 0.15985-0.15985 0.0764 0.191 0.067 0.4192-0.0209 0.50712-0.0879 0.08792-0.15045-0.06835-0.13896-0.34727zm0.77286-0.50712c0-0.3638 0.11906-0.66146 0.26458-0.66146s0.26459 0.29766 0.26459 0.66146-0.11907 0.66146-0.26459 0.66146-0.26458-0.29766-0.26458-0.66146zm1.0583-0.22049c0-0.53358 0.11806-0.97014 0.26236-0.97014 0.14429 0 0.2232 0.35766 0.17534 0.79479-0.12847 1.1735-0.4377 1.2974-0.4377 0.17535zm0.79375-0.40858c0-0.79315 0.10828-1.0907 0.39688-1.0907 0.26083 0 0.39687 0.26098 0.39687 0.76135 0 0.41874-0.17859 0.90957-0.39687 1.0907-0.34187 0.28372-0.39688 0.17819-0.39688-0.76135zm1.2057-0.36313c0.22317-0.72604 0.33482-0.86281 0.53828-0.65935 0.22802 0.22801-0.14568 1.2547-0.45669 1.2547-0.15221 0-0.18687-0.25283-0.0816-0.59531zm-6.2448 0.92604c0.98823-3.534 0.9188-5.7529-0.21203-6.7763-1.0006-0.90558-1.8926 0.16989-1.8926 2.282 0 1.2595 1.22 5.4865 1.5836 5.4865 0.134 0 0.36849-0.44648 0.52109-0.99219zm-0.78174-0.47864c0-0.22687 0.121-0.3377 0.2689-0.2463 0.14789 0.0914 0.2004 0.27702 0.11667 0.41249-0.22681 0.36699-0.38557 0.29856-0.38557-0.16619zm0-0.91043c-0.20985-0.1297-0.32202-0.29534-0.24926-0.3681 0.0728-0.07276 0.30399-0.02618 0.51384 0.10352 0.20985 0.1297 0.32202 0.29534 0.24926 0.3681-0.0728 0.07276-0.30399 0.02618-0.51384-0.10352zm-0.19844-0.96898c-0.36583-0.14762-0.45469-0.61852-0.11671-0.61852 0.1177 0 0.44513 0.17481 0.7276 0.38846 0.38272 0.28948 0.41246 0.38528 0.11672 0.37599-0.21829-0.0069-0.54571-0.07253-0.72761-0.14593zm0.13229-0.96233c-0.40018-0.15813-0.7276-0.4412-0.7276-0.62903 0-0.25991 0.22129-0.23599 0.92604 0.10008 0.50932 0.24288 0.92604 0.53861 0.92604 0.65718 0 0.26339-0.18753 0.24201-1.1245-0.12823zm0-1.1304c-0.40018-0.2171-0.7276-0.5676-0.7276-0.77888 0-0.32486 0.14291-0.31599 0.92604 0.05745 0.50932 0.24288 0.92604 0.59814 0.92604 0.78947 0 0.4388-0.2141 0.42584-1.1245-0.06805zm0.13229-1.2449c-0.66131-0.3023-0.79529-0.72043-0.23083-0.72043 0.36879 0 1.1215 0.72805 0.93 0.89955-0.0571 0.05116-0.37174-0.02945-0.69917-0.17912z" fill="#e3dbdb" stroke-width=".26458"/>
 </g>
</svg>
